<svg xmlns="http://www.w3.org/2000/svg" xmlns:xlink="http://www.w3.org/1999/xlink" width="707" height="958.769" viewBox="0 0 707 958.769"><defs><clipPath id="a"><rect width="706.13" height="261.041" fill="#e01650"/></clipPath><filter id="b" x="6" y="423.591" width="341" height="127" filterUnits="userSpaceOnUse"><feOffset dy="3" input="SourceAlpha"/><feGaussianBlur stdDeviation="3" result="c"/><feFlood flood-opacity="0.161"/><feComposite operator="in" in2="c"/><feComposite in="SourceGraphic"/></filter><filter id="d" x="361" y="423.591" width="341" height="127" filterUnits="userSpaceOnUse"><feOffset dy="3" input="SourceAlpha"/><feGaussianBlur stdDeviation="3" result="e"/><feFlood flood-opacity="0.161"/><feComposite operator="in" in2="e"/><feComposite in="SourceGraphic"/></filter><filter id="f" x="5" y="656.275" width="697" height="70" filterUnits="userSpaceOnUse"><feOffset dy="3" input="SourceAlpha"/><feGaussianBlur stdDeviation="3" result="g"/><feFlood flood-opacity="0.161"/><feComposite operator="in" in2="g"/><feComposite in="SourceGraphic"/></filter><filter id="h" x="5" y="724.275" width="697" height="70" filterUnits="userSpaceOnUse"><feOffset dy="3" input="SourceAlpha"/><feGaussianBlur stdDeviation="3" result="i"/><feFlood flood-opacity="0.161"/><feComposite operator="in" in2="i"/><feComposite in="SourceGraphic"/></filter><filter id="j" x="5" y="549.275" width="341" height="109" filterUnits="userSpaceOnUse"><feOffset dy="3" input="SourceAlpha"/><feGaussianBlur stdDeviation="3" result="k"/><feFlood flood-opacity="0.161"/><feComposite operator="in" in2="k"/><feComposite in="SourceGraphic"/></filter><filter id="l" x="361" y="549.275" width="341" height="109" filterUnits="userSpaceOnUse"><feOffset dy="3" input="SourceAlpha"/><feGaussianBlur stdDeviation="3" result="m"/><feFlood flood-opacity="0.161"/><feComposite operator="in" in2="m"/><feComposite in="SourceGraphic"/></filter><filter id="n" x="49.5" y="846.283" width="21" height="66.148" filterUnits="userSpaceOnUse"><feOffset dy="3" input="SourceAlpha"/><feGaussianBlur stdDeviation="3" result="o"/><feFlood flood-opacity="0.161"/><feComposite operator="in" in2="o"/><feComposite in="SourceGraphic"/></filter><filter id="p" x="147.5" y="846.283" width="21" height="50.109" filterUnits="userSpaceOnUse"><feOffset dy="3" input="SourceAlpha"/><feGaussianBlur stdDeviation="3" result="q"/><feFlood flood-opacity="0.161"/><feComposite operator="in" in2="q"/><feComposite in="SourceGraphic"/></filter><filter id="r" x="245.088" y="846.283" width="21" height="50.109" filterUnits="userSpaceOnUse"><feOffset dy="3" input="SourceAlpha"/><feGaussianBlur stdDeviation="3" result="s"/><feFlood flood-opacity="0.161"/><feComposite operator="in" in2="s"/><feComposite in="SourceGraphic"/></filter><filter id="t" x="344" y="846.283" width="21" height="61.739" filterUnits="userSpaceOnUse"><feOffset dy="3" input="SourceAlpha"/><feGaussianBlur stdDeviation="3" result="u"/><feFlood flood-opacity="0.161"/><feComposite operator="in" in2="u"/><feComposite in="SourceGraphic"/></filter><filter id="v" x="441.5" y="846.283" width="21" height="50.109" filterUnits="userSpaceOnUse"><feOffset dy="3" input="SourceAlpha"/><feGaussianBlur stdDeviation="3" result="w"/><feFlood flood-opacity="0.161"/><feComposite operator="in" in2="w"/><feComposite in="SourceGraphic"/></filter><filter id="x" x="538.5" y="846.283" width="21" height="50.109" filterUnits="userSpaceOnUse"><feOffset dy="3" input="SourceAlpha"/><feGaussianBlur stdDeviation="3" result="y"/><feFlood flood-opacity="0.161"/><feComposite operator="in" in2="y"/><feComposite in="SourceGraphic"/></filter><filter id="z" x="147.5" y="875.392" width="412" height="21" filterUnits="userSpaceOnUse"><feOffset dy="3" input="SourceAlpha"/><feGaussianBlur stdDeviation="3" result="aa"/><feFlood flood-opacity="0.161"/><feComposite operator="in" in2="aa"/><feComposite in="SourceGraphic"/></filter><filter id="ab" x="636.5" y="846.283" width="21" height="66.148" filterUnits="userSpaceOnUse"><feOffset dy="3" input="SourceAlpha"/><feGaussianBlur stdDeviation="3" result="ac"/><feFlood flood-opacity="0.161"/><feComposite operator="in" in2="ac"/><feComposite in="SourceGraphic"/></filter><filter id="ad" x="5" y="800.769" width="110" height="70" filterUnits="userSpaceOnUse"><feOffset dy="3" input="SourceAlpha"/><feGaussianBlur stdDeviation="3" result="ae"/><feFlood flood-opacity="0.161"/><feComposite operator="in" in2="ae"/><feComposite in="SourceGraphic"/></filter><filter id="af" x="5" y="888.769" width="144" height="70" filterUnits="userSpaceOnUse"><feOffset dy="3" input="SourceAlpha"/><feGaussianBlur stdDeviation="3" result="ag"/><feFlood flood-opacity="0.161"/><feComposite operator="in" in2="ag"/><feComposite in="SourceGraphic"/></filter><filter id="ah" x="563" y="888.769" width="144" height="70" filterUnits="userSpaceOnUse"><feOffset dy="3" input="SourceAlpha"/><feGaussianBlur stdDeviation="3" result="ai"/><feFlood flood-opacity="0.161"/><feComposite operator="in" in2="ai"/><feComposite in="SourceGraphic"/></filter><filter id="aj" x="266" y="888.769" width="178" height="70" filterUnits="userSpaceOnUse"><feOffset dy="3" input="SourceAlpha"/><feGaussianBlur stdDeviation="3" result="ak"/><feFlood flood-opacity="0.161"/><feComposite operator="in" in2="ak"/><feComposite in="SourceGraphic"/></filter><filter id="al" x="299" y="800.769" width="110" height="70" filterUnits="userSpaceOnUse"><feOffset dy="3" input="SourceAlpha"/><feGaussianBlur stdDeviation="3" result="am"/><feFlood flood-opacity="0.161"/><feComposite operator="in" in2="am"/><feComposite in="SourceGraphic"/></filter><filter id="an" x="201" y="800.769" width="110" height="70" filterUnits="userSpaceOnUse"><feOffset dy="3" input="SourceAlpha"/><feGaussianBlur stdDeviation="3" result="ao"/><feFlood flood-opacity="0.161"/><feComposite operator="in" in2="ao"/><feComposite in="SourceGraphic"/></filter><filter id="ap" x="103" y="800.769" width="110" height="70" filterUnits="userSpaceOnUse"><feOffset dy="3" input="SourceAlpha"/><feGaussianBlur stdDeviation="3" result="aq"/><feFlood flood-opacity="0.161"/><feComposite operator="in" in2="aq"/><feComposite in="SourceGraphic"/></filter><filter id="ar" x="397" y="800.769" width="110" height="70" filterUnits="userSpaceOnUse"><feOffset dy="3" input="SourceAlpha"/><feGaussianBlur stdDeviation="3" result="as"/><feFlood flood-opacity="0.161"/><feComposite operator="in" in2="as"/><feComposite in="SourceGraphic"/></filter><filter id="at" x="494" y="800.769" width="110" height="70" filterUnits="userSpaceOnUse"><feOffset dy="3" input="SourceAlpha"/><feGaussianBlur stdDeviation="3" result="au"/><feFlood flood-opacity="0.161"/><feComposite operator="in" in2="au"/><feComposite in="SourceGraphic"/></filter><filter id="av" x="592" y="800.769" width="110" height="70" filterUnits="userSpaceOnUse"><feOffset dy="3" input="SourceAlpha"/><feGaussianBlur stdDeviation="3" result="aw"/><feFlood flood-opacity="0.161"/><feComposite operator="in" in2="aw"/><feComposite in="SourceGraphic"/></filter></defs><g transform="translate(-180 -5850.725)"><g transform="translate(180 5850.725)"><g clip-path="url(#a)"><path d="M616.261,33a20.407,20.407,0,1,1-12.946,0V15.484H108.62V33a20.407,20.407,0,1,1-12.946,0V15.484H0V218.339H706.13V15.484H616.261Z" transform="translate(0 42.703)" fill="#35b5d5"/><path d="M48.636,75.7V0H35.686V75.7a20.409,20.409,0,1,0,12.949,0m-6.475,30.371A11.027,11.027,0,1,1,53.19,95.039a11.026,11.026,0,0,1-11.029,11.029" transform="translate(59.988 0.001)" fill="#4f4f4f"/><path d="M183.724,75.7V0H170.774V75.7a20.409,20.409,0,1,0,12.949,0m-6.475,30.371a11.027,11.027,0,1,1,11.029-11.029,11.031,11.031,0,0,1-11.029,11.029" transform="translate(432.538 0.001)" fill="#4f4f4f"/></g></g><text transform="translate(364 6043.725)" fill="#12263f" font-size="30" font-family="Roboto-Black, Roboto" font-weight="800"><tspan x="0" y="31">LEAN MANUFACTURING</tspan></text><rect width="678" height="134" transform="translate(195 6125.999)" fill="#aedbef"/><text transform="translate(264 6194.041)" fill="#12263f" font-size="16" font-family="Roboto-Regular, Roboto"><tspan x="4.992" y="17" xml:space="preserve">Mayor calidad, menores costes, menor plazo de  entrega, mayor seguridad, </tspan><tspan x="207.176" y="41">motivación plena.</tspan></text><text transform="translate(438 6152.98)" fill="#12263f" font-size="18" font-family="Roboto-Black, Roboto" font-weight="800"><tspan x="0.862" y="19">Excelencia operaciones</tspan></text><text transform="translate(251 5976.745)" fill="#12263f" font-size="38" font-family="Roboto-Black, Roboto" font-weight="800"><tspan x="4.236" y="40">Esquema sistema de producción</tspan></text><g transform="matrix(1, 0, 0, 1, 180, 5850.72)" filter="url(#b)"><path d="M4.778,0H318.222A4.893,4.893,0,0,1,323,5v99a4.893,4.893,0,0,1-4.778,5H4.778A4.893,4.893,0,0,1,0,104V5A4.893,4.893,0,0,1,4.778,0Z" transform="translate(15 429.59)" fill="#f2f8ff"/></g><g transform="matrix(1, 0, 0, 1, 180, 5850.72)" filter="url(#d)"><rect width="323" height="109" rx="5" transform="translate(370 429.59)" fill="#f2f8ff"/></g><text transform="translate(242 6287.315)" fill="#12263f" font-size="16" font-family="Roboto-Black, Roboto" font-weight="800"><tspan x="33.77" y="17">Justo a tiempo (JIT)</tspan><tspan font-family="Roboto-Regular, Roboto" font-weight="400"><tspan x="107" y="37"> </tspan><tspan x="2.582" y="57">Pieza correcta, en la cantidad</tspan><tspan x="2.918" y="77">correcta, cuando se necesita.</tspan></tspan></text><text transform="translate(610 6287.315)" fill="#12263f" font-size="16" font-family="Roboto-Black, Roboto" font-weight="800"><tspan x="78.828" y="17">JIDOKA</tspan><tspan x="107" y="37"> </tspan><tspan font-family="Roboto-Regular, Roboto" font-weight="400"><tspan x="0.441" y="57">Calidad en la fuente, haciendo</tspan><tspan x="25.793" y="77">los problemas visibles.</tspan></tspan></text><g transform="matrix(1, 0, 0, 1, 180, 5850.72)" filter="url(#f)"><rect width="679" height="52" rx="5" transform="translate(14 662.28)" fill="#f2f8ff"/></g><g transform="matrix(1, 0, 0, 1, 180, 5850.72)" filter="url(#h)"><rect width="679" height="52" rx="5" transform="translate(14 730.28)" fill="#f2f8ff"/></g><g transform="matrix(1, 0, 0, 1, 180, 5850.72)" filter="url(#j)"><rect width="323" height="91" rx="5" transform="translate(14 555.28)" fill="#f2f8ff"/></g><g transform="matrix(1, 0, 0, 1, 180, 5850.72)" filter="url(#l)"><rect width="323" height="91" rx="5" transform="translate(370 555.28)" fill="#f2f8ff"/></g><text transform="translate(228 6526)" fill="#12263f" font-size="16" font-family="Roboto-Regular, Roboto"><tspan x="10.453" y="17">Procesos estables y estandarizados, producción nivelada, mejora continua </tspan><tspan y="17" font-family="Roboto-Italic, Roboto" font-style="italic">(Kaizen)</tspan></text><text transform="translate(219 6595)" fill="#12263f" font-size="16" font-family="Roboto-Regular, Roboto"><tspan x="3.145" y="17">Factor humano: compromiso, dirección, formación, comunicación, motivación, liderazgo</tspan></text><text transform="translate(213 6415)" fill="#12263f" font-size="16" font-family="Roboto-Regular, Roboto"><tspan x="0.336" y="17">Tiempo de ciclo del cliente </tspan><tspan y="17" font-family="Roboto-Italic, Roboto" font-style="italic">(Takt time)</tspan><tspan x="34.426" y="42"> Flujo continuo pieza a pieza</tspan><tspan x="89.457" y="67"> Sistema </tspan><tspan y="67" font-family="Roboto-Italic, Roboto" font-style="italic">pull</tspan></text><text transform="translate(611 6415)" fill="#12263f" font-size="16" font-family="Roboto-Regular, Roboto"><tspan x="31.332" y="17">Paradas automáticas</tspan><tspan x="2.559" y="42"> Separación hombre-máquina</tspan><tspan x="67.441" y="67"> Poka-Yoke</tspan></text><g transform="matrix(1, 0, 0, 1, 180, 5850.72)" filter="url(#n)"><path d="M-7681-5606.387v45.148" transform="translate(7741 6460.17)" fill="none" stroke="#727997" stroke-linecap="round" stroke-width="3"/></g><g transform="matrix(1, 0, 0, 1, 180, 5850.72)" filter="url(#p)"><path d="M-7681-5606.387v29.109" transform="translate(7839 6460.17)" fill="none" stroke="#727997" stroke-linecap="round" stroke-width="3"/></g><g transform="matrix(1, 0, 0, 1, 180, 5850.72)" filter="url(#r)"><path d="M-7681-5606.387v29.109" transform="translate(7936.59 6460.17)" fill="none" stroke="#727997" stroke-linecap="round" stroke-width="3"/></g><g transform="matrix(1, 0, 0, 1, 180, 5850.72)" filter="url(#t)"><path d="M-7681-5606.387v40.739" transform="translate(8035.5 6460.17)" fill="none" stroke="#727997" stroke-linecap="round" stroke-width="3"/></g><g transform="matrix(1, 0, 0, 1, 180, 5850.72)" filter="url(#v)"><path d="M-7681-5606.387v29.109" transform="translate(8133 6460.17)" fill="none" stroke="#727997" stroke-linecap="round" stroke-width="3"/></g><g transform="matrix(1, 0, 0, 1, 180, 5850.72)" filter="url(#x)"><path d="M-7681-5606.387v29.109" transform="translate(8230 6460.17)" fill="none" stroke="#727997" stroke-linecap="round" stroke-width="3"/></g><g transform="matrix(1, 0, 0, 1, 180, 5850.72)" filter="url(#z)"><path d="M-7681-5606.385v391" transform="translate(-5057.38 8563.89) rotate(90)" fill="none" stroke="#727997" stroke-linecap="round" stroke-width="3"/></g><g transform="matrix(1, 0, 0, 1, 180, 5850.72)" filter="url(#ab)"><path d="M-7681-5606.387v45.148" transform="translate(8328 6460.17)" fill="none" stroke="#727997" stroke-linecap="round" stroke-width="3"/></g><g transform="matrix(1, 0, 0, 1, 180, 5850.72)" filter="url(#ad)"><rect width="92" height="52" rx="5" transform="translate(14 806.77)" fill="#a9e3f1"/></g><g transform="matrix(1, 0, 0, 1, 180, 5850.72)" filter="url(#af)"><rect width="126" height="52" rx="5" transform="translate(14 894.77)" fill="#a9e3f1"/></g><g transform="matrix(1, 0, 0, 1, 180, 5850.72)" filter="url(#ah)"><rect width="126" height="52" rx="5" transform="translate(572 894.77)" fill="#a9e3f1"/></g><text transform="translate(223 6671.493)" fill="#12263f" font-size="16" font-family="Roboto-Regular, Roboto"><tspan x="0" y="17">VSM</tspan></text><text transform="translate(204 6750.493)" fill="#12263f" font-size="16" font-family="Roboto-Regular, Roboto"><tspan x="5.254" y="17">Herramientas</tspan><tspan x="1.07" y="37">de diagnóstico</tspan></text><text transform="translate(754 6750.493)" fill="#12263f" font-size="16" font-family="Roboto-Regular, Roboto"><tspan x="13.254" y="17">Herramientas</tspan><tspan x="6.863" y="37">de seguimiento</tspan></text><g transform="translate(-229 627.493)"><g transform="matrix(1, 0, 0, 1, 409, 5223.23)" filter="url(#aj)"><rect width="160" height="52" rx="5" transform="translate(275 894.77)" fill="#a9e3f1"/></g><text transform="translate(710 6123)" fill="#12263f" font-size="16" font-family="Roboto-Regular, Roboto"><tspan x="5.254" y="17">Herramientas</tspan><tspan x="16.461" y="37">operativas</tspan></text></g><g transform="matrix(1, 0, 0, 1, 180, 5850.72)" filter="url(#al)"><rect width="92" height="52" rx="5" transform="translate(308 806.77)" fill="#a9e3f1"/></g><text transform="translate(514 6671.493)" fill="#12263f" font-size="16" font-family="Roboto-Regular, Roboto"><tspan x="0" y="17">TPM</tspan></text><g transform="matrix(1, 0, 0, 1, 180, 5850.72)" filter="url(#an)"><rect width="92" height="52" rx="5" transform="translate(210 806.77)" fill="#a9e3f1"/></g><text transform="translate(414 6671.493)" fill="#12263f" font-size="16" font-family="Roboto-Regular, Roboto"><tspan x="0" y="17">SMED</tspan></text><g transform="matrix(1, 0, 0, 1, 180, 5850.72)" filter="url(#ap)"><rect width="92" height="52" rx="5" transform="translate(112 806.77)" fill="#a9e3f1"/></g><text transform="translate(328 6671.493)" fill="#12263f" font-size="16" font-family="Roboto-Regular, Roboto"><tspan x="0" y="17">5S</tspan></text><g transform="matrix(1, 0, 0, 1, 180, 5850.72)" filter="url(#ar)"><rect width="92" height="52" rx="5" transform="translate(406 806.77)" fill="#a9e3f1"/></g><text transform="translate(610 6661.493)" fill="#12263f" font-size="16" font-family="Roboto-Regular, Roboto"><tspan x="6.063" y="17">KAN</tspan><tspan x="6.098" y="41">BAN</tspan></text><g transform="matrix(1, 0, 0, 1, 180, 5850.72)" filter="url(#at)"><path d="M5,0H87a5,5,0,0,1,5,5V47a5,5,0,0,1-5,5H5a5,5,0,0,1-5-5V5A5,5,0,0,1,5,0Z" transform="translate(503 806.77)" fill="#a9e3f1"/></g><text transform="translate(700 6664.493)" fill="#12263f" font-size="16" font-family="Roboto-Regular, Roboto"><tspan x="1.656" y="17">Gestión </tspan><tspan x="8.355" y="34">visual</tspan></text><g transform="matrix(1, 0, 0, 1, 180, 5850.72)" filter="url(#av)"><path d="M5,0H87a5,5,0,0,1,5,5V47a5,5,0,0,1-5,5H5a5,5,0,0,1-5-5V5A5,5,0,0,1,5,0Z" transform="translate(601 806.77)" fill="#a9e3f1"/></g><text transform="translate(808 6671.493)" fill="#12263f" font-size="16" font-family="Roboto-Regular, Roboto"><tspan x="0" y="17">KPI’s</tspan></text></g></svg>