<svg xmlns="http://www.w3.org/2000/svg" width="99.947" height="157.699" viewBox="0 0 99.947 157.699"><g transform="translate(-1356.125 -292.006)"><path d="M10.14,0a10.14,10.14,0,0,1,10.14,10.14v84.4A10.14,10.14,0,1,1,0,94.541V10.14A10.14,10.14,0,0,1,10.14,0Z" transform="translate(1442.039 303.967) rotate(46.216)" fill="#35b5d5"/><path d="M8.756.8a1.171,1.171,0,0,1,.828,2l-2,2-.567.567.567.567,2,2A1.171,1.171,0,1,1,7.928,9.584l-2-2-.567-.567L4.8,7.588l-2,2A1.171,1.171,0,0,1,1.145,7.928l2-2,.567-.567L3.141,4.8l-2-2A1.171,1.171,0,0,1,2.8,1.145l2,2,.567.567.567-.567,2-2A1.165,1.165,0,0,1,8.756.8m0-.8a1.968,1.968,0,0,0-1.4.577l-2,2-2-2A1.973,1.973,0,1,0,.578,3.368l2,2-2,2a1.973,1.973,0,1,0,2.79,2.79l2-2,2,2a1.973,1.973,0,0,0,2.791,0h0a1.973,1.973,0,0,0,0-2.79l-2-2,2-2a1.974,1.974,0,0,0,0-2.791h0A1.968,1.968,0,0,0,8.756,0Z" transform="translate(1420.313 307.18) rotate(-135)" fill="#fff"/><path d="M325.19,447.512a3.1,3.1,0,0,0,.909,2.2l3.142,3.141-3.142,3.141a3.105,3.105,0,0,0,4.391,4.391l3.141-3.141,3.141,3.141a3.1,3.1,0,0,0,4.391-4.391l-3.141-3.141,3.141-3.141a3.105,3.105,0,0,0,0-4.391h0a3.105,3.105,0,0,0-4.391,0l-3.141,3.141-3.141-3.141a3.106,3.106,0,0,0-4.391,0h0a3.1,3.1,0,0,0-.909,2.2Z" transform="translate(1030.935 -11.586)" fill="#fff"/></g></svg>