<svg xmlns="http://www.w3.org/2000/svg" width="28.633" height="99.585" viewBox="0 0 28.633 99.585"><g transform="translate(-1224.569 -180.441)"><path d="M8.756.8a1.171,1.171,0,0,1,.828,2l-2,2-.567.567.567.567,2,2A1.171,1.171,0,1,1,7.928,9.584l-2-2-.567-.567L4.8,7.588l-2,2A1.171,1.171,0,0,1,1.145,7.928l2-2,.567-.567L3.141,4.8l-2-2A1.171,1.171,0,0,1,2.8,1.145l2,2,.567.567.567-.567,2-2A1.165,1.165,0,0,1,8.756.8m0-.8a1.966,1.966,0,0,0-1.4.578l-2,2-2-2a1.973,1.973,0,0,0-2.79,0h0a1.974,1.974,0,0,0,0,2.79l2,2-2,2a1.973,1.973,0,1,0,2.79,2.79l2-2,2,2a1.973,1.973,0,0,0,2.791,0h0a1.973,1.973,0,0,0,0-2.79l-2-2,2-2a1.973,1.973,0,0,0,0-2.79h0A1.966,1.966,0,0,0,8.756,0Z" transform="translate(1245.615 195.614) rotate(-135)" fill="#35b5d5"/><path d="M325.19,447.512a3.1,3.1,0,0,0,.909,2.2l3.142,3.141-3.142,3.141a3.105,3.105,0,0,0,4.391,4.391l3.141-3.141,3.141,3.141a3.1,3.1,0,0,0,4.391-4.391l-3.141-3.141,3.141-3.141a3.105,3.105,0,0,0,0-4.391h0a3.105,3.105,0,0,0-4.391,0l-3.141,3.141-3.141-3.141a3.106,3.106,0,0,0-4.391,0h0a3.1,3.1,0,0,0-.909,2.2Z" transform="translate(899.379 -181.266)" fill="#fff"/></g></svg>