<svg xmlns="http://www.w3.org/2000/svg" width="39.589" height="13.408" viewBox="0 0 39.589 13.408"><g transform="translate(-1072.803 -175.321)"><g transform="translate(1072.803 175.321)"><path d="M69.477,473.922v9.386a2.011,2.011,0,0,1-2.011,2.011h0a2.011,2.011,0,0,1-2.011-2.011v-9.386a2.011,2.011,0,0,1,2.011-2.011h0A2.011,2.011,0,0,1,69.477,473.922Z" transform="translate(-65.455 -471.911)" fill="#fff"/><path d="M88.1,473.922v9.386a2.011,2.011,0,0,1-2.011,2.011h0a2.011,2.011,0,0,1-2.011-2.011v-9.386a2.011,2.011,0,0,1,2.011-2.011h0A2.011,2.011,0,0,1,88.1,473.922Z" transform="translate(-75.185 -471.911)" fill="#fff"/><path d="M106.721,473.922v9.386a2.011,2.011,0,0,1-2.011,2.011h0a2.011,2.011,0,0,1-2.011-2.011v-9.386a2.011,2.011,0,0,1,2.011-2.011h0A2.011,2.011,0,0,1,106.721,473.922Z" transform="translate(-84.915 -471.911)" fill="#fff"/><path d="M125.343,473.922v9.386a2.011,2.011,0,0,1-2.011,2.011h0a2.011,2.011,0,0,1-2.011-2.011v-9.386a2.011,2.011,0,0,1,2.011-2.011h0A2.011,2.011,0,0,1,125.343,473.922Z" transform="translate(-94.646 -471.911)" fill="#fff"/><path d="M143.965,473.922v9.386a2.011,2.011,0,0,1-2.011,2.011h0a2.011,2.011,0,0,1-2.011-2.011v-9.386a2.011,2.011,0,0,1,2.011-2.011h0A2.011,2.011,0,0,1,143.965,473.922Z" transform="translate(-104.376 -471.911)" fill="#fff"/></g></g></svg>