<svg xmlns="http://www.w3.org/2000/svg" xmlns:xlink="http://www.w3.org/1999/xlink" width="1320" height="506.835" viewBox="0 0 1320 506.835"><defs><linearGradient id="a" x1="0.835" y1="0.896" x2="0.013" y2="0.056" gradientUnits="objectBoundingBox"><stop offset="0" stop-color="#004b89"/><stop offset="1" stop-color="#008bfd"/></linearGradient><linearGradient id="b" x1="0.5" x2="0.5" y2="1" gradientUnits="objectBoundingBox"><stop offset="0" stop-color="#175ec9"/><stop offset="1" stop-color="#184079"/></linearGradient><linearGradient id="g" x1="0.429" y1="0.396" x2="1.045" y2="0.295" xlink:href="#a"/><clipPath id="h"><path d="M20.787,0H1299.213C1310.693,0,1320,8.4,1320,18.772V488.063c0,10.367-9.307,18.772-20.787,18.772H20.787C9.307,506.835,0,498.431,0,488.063V18.772C0,8.4,9.307,0,20.787,0Z" fill="url(#a)"/></clipPath><clipPath id="i"><path d="M1299.213,0H20.787C9.307,0,0,8.4,0,18.772V488.063c0,10.367,9.307,18.772,20.787,18.772H1299.213c11.48,0,20.787-8.4,20.787-18.772V18.772C1320,8.4,1310.693,0,1299.213,0Z" transform="translate(-8850.325 -15010)" fill="url(#b)"/></clipPath><clipPath id="k"><rect width="1625.606" height="925.084" fill="none"/></clipPath><clipPath id="l"><rect width="1625.606" height="925.084" fill="none" stroke="#35b5d5" stroke-width="1"/></clipPath><clipPath id="m"><rect width="891.068" height="429.571" fill="none" stroke="#35b5d5" stroke-width="1"/></clipPath><clipPath id="n"><rect width="891.068" height="429.57" fill="none" stroke="#35b5d5" stroke-width="1"/></clipPath><clipPath id="p"><rect width="166.489" height="149.069" stroke="#1551ab" stroke-width="1" fill="url(#b)"/></clipPath><clipPath id="q"><rect width="166.489" height="149.069" stroke="#1759bc" stroke-width="1" fill="url(#b)"/></clipPath><clipPath id="r"><rect width="166.487" height="149.069" stroke="#1759bc" stroke-width="1" fill="url(#b)"/></clipPath><clipPath id="t"><rect width="735.702" height="370.389" fill="url(#b)"/></clipPath><clipPath id="w"><rect width="280.109" height="253.898" fill="#35b5d5" stroke="#35b5d5" stroke-width="1"/></clipPath><clipPath id="x"><rect width="280.111" height="253.898" fill="#35b5d5" stroke="#35b5d5" stroke-width="1"/></clipPath><clipPath id="y"><rect width="280.109" height="253.899" fill="#35b5d5" stroke="#35b5d5" stroke-width="1"/></clipPath><clipPath id="z"><rect width="106.712" height="102.362" fill="#35b5d5"/></clipPath><clipPath id="aa"><rect width="113.8" height="109.16" fill="#35b5d5"/></clipPath></defs><g transform="translate(-144.333 -70)"><g transform="translate(144.333 70)"><path d="M1299.213,0H20.787C9.307,0,0,8.4,0,18.772V488.063c0,10.367,9.307,18.772,20.787,18.772H1299.213c11.48,0,20.787-8.4,20.787-18.772V18.772C1320,8.4,1310.693,0,1299.213,0Z" fill="url(#g)"/><g clip-path="url(#h)"><g transform="translate(1421.653 781.694) rotate(172)"><g transform="translate(221.608 214.317)"><path d="M17.283,328.423c20.259-39.4,57.978-65.29,100.17-77.522,50.023-14.5,98.156-6.769,148.343.93,46.274,7.1,97.741,9.075,136.786-21,60.6-46.679,66.391-137.113,121.882-189.438A153.591,153.591,0,0,1,627.03.008c41.715-.459,94.5,17.7,115.838,56.185,20.717,37.374-.278,74.588,7.078,112.848C764.333,243.87,867.667,239.423,917.6,276.565c23.856,17.747,39.91,44.227,50.909,71.851,12.206,30.66,18.854,64.816,10.59,96.765C965.408,498.1,914,517.914,863.928,519.815c-37.206,1.414-74.193-8.161-108.36-22.955-30.219-13.083-58.643-30.249-89.549-41.612C589.694,427.184,514.508,463,448.655,501.5c-84.537,49.427-171.844,97.077-272.917,80.071C98.507,568.576,18.354,521.067,3.2,438.479c-6.411-34.937-3.44-71.99,11.3-104.308Q15.829,331.251,17.283,328.423Z" transform="translate(0 42.404)" fill="none" stroke="#fff" stroke-miterlimit="10" stroke-width="1" opacity="0.29" style="mix-blend-mode:overlay;isolation:isolate"/><path d="M17.283,328.423c20.259-39.4,57.978-65.29,100.17-77.523,50.023-14.5,98.156-6.767,148.343.932,46.274,7.1,97.741,9.076,136.786-21,60.6-46.677,66.391-137.111,121.882-189.438A153.6,153.6,0,0,1,627.03.008c41.715-.459,94.5,17.7,115.838,56.185,20.717,37.373-.278,74.588,7.078,112.848,14.387,74.828,117.721,70.381,167.649,107.523,23.856,17.747,39.91,44.226,50.909,71.851,12.206,30.66,18.854,64.816,10.59,96.765C965.408,498.1,914,517.914,863.928,519.815c-37.206,1.413-74.193-8.161-108.36-22.955-30.219-13.083-58.643-30.249-89.549-41.612C589.694,427.184,514.508,463,448.655,501.5c-84.537,49.427-171.844,97.076-272.917,80.071C98.507,568.576,18.354,521.067,3.2,438.479c-6.411-34.938-3.44-71.99,11.3-104.308Q15.829,331.249,17.283,328.423Z" transform="translate(0 28.27)" fill="none" stroke="#fff" stroke-miterlimit="10" stroke-width="1" opacity="0.29" style="mix-blend-mode:overlay;isolation:isolate"/><path d="M17.283,328.424c20.259-39.4,57.978-65.29,100.17-77.523,50.023-14.5,98.156-6.767,148.343.932,46.274,7.1,97.741,9.075,136.786-21,60.6-46.679,66.391-137.111,121.882-189.438A153.6,153.6,0,0,1,627.03.008c41.715-.459,94.5,17.7,115.838,56.187,20.717,37.373-.278,74.588,7.078,112.848,14.387,74.828,117.721,70.38,167.649,107.523,23.856,17.747,39.91,44.226,50.909,71.851,12.206,30.66,18.854,64.816,10.59,96.765C965.408,498.1,914,517.914,863.928,519.816c-37.206,1.413-74.193-8.161-108.36-22.956-30.219-13.082-58.643-30.249-89.549-41.612C589.694,427.186,514.508,463,448.655,501.5c-84.537,49.427-171.844,97.076-272.917,80.071C98.507,568.578,18.354,521.068,3.2,438.48c-6.411-34.938-3.44-71.99,11.3-104.308Q15.829,331.251,17.283,328.424Z" transform="translate(0 14.134)" fill="none" stroke="#fff" stroke-miterlimit="10" stroke-width="1" opacity="0.29" style="mix-blend-mode:overlay;isolation:isolate"/><path d="M17.283,328.423c20.259-39.4,57.978-65.288,100.17-77.522,50.023-14.5,98.156-6.769,148.343.93,46.274,7.1,97.741,9.076,136.786-21,60.6-46.678,66.391-137.111,121.882-189.438A153.6,153.6,0,0,1,627.03.008c41.715-.459,94.5,17.7,115.838,56.185,20.717,37.374-.278,74.589,7.078,112.848,14.387,74.829,117.721,70.381,167.649,107.524,23.856,17.746,39.91,44.226,50.909,71.851,12.206,30.66,18.854,64.814,10.59,96.764C965.408,498.1,914,517.914,863.928,519.816c-37.206,1.413-74.193-8.163-108.36-22.956-30.219-13.083-58.643-30.249-89.549-41.612C589.694,427.186,514.508,463,448.655,501.5c-84.537,49.428-171.844,97.077-272.917,80.073C98.507,568.578,18.354,521.068,3.2,438.479-3.215,403.542-.243,366.49,14.5,334.17Q15.829,331.251,17.283,328.423Z" transform="translate(0 0)" fill="none" stroke="#fff" stroke-miterlimit="10" stroke-width="1" opacity="0.29" style="mix-blend-mode:overlay;isolation:isolate"/></g><path d="M15.112,287.169c17.715-34.451,50.7-57.088,87.588-67.784,43.738-12.681,85.825-5.919,129.709.813,40.461,6.207,85.463,7.935,119.6-18.36C405,161.024,410.063,81.949,458.584,36.2A134.3,134.3,0,0,1,548.268.007c36.475-.4,82.632,15.474,101.287,49.129,18.115,32.679-.244,65.218,6.189,98.672,12.579,65.429,102.933,61.541,146.589,94.017,20.86,15.517,34.9,38.67,44.515,62.826,10.673,26.809,16.485,56.674,9.26,84.61-11.968,46.276-56.921,63.6-100.7,65.259-32.532,1.236-64.873-7.137-94.75-20.072-26.422-11.439-51.276-26.448-78.3-36.385-66.737-24.537-132.48,6.775-190.061,40.442-73.916,43.219-150.258,84.883-238.634,70.014C86.133,497.157,16.048,455.615,2.8,383.4c-5.607-30.549-3.008-62.948,9.88-91.206Q13.839,289.642,15.112,287.169Z" transform="translate(597.339 534.145)" fill="#fff" opacity="0.132" style="mix-blend-mode:overlay;isolation:isolate"/><path d="M15.112,287.169c17.715-34.451,50.7-57.088,87.588-67.784,43.738-12.681,85.825-5.919,129.709.813,40.461,6.207,85.463,7.935,119.6-18.36C405,161.024,410.063,81.949,458.584,36.2A134.3,134.3,0,0,1,548.268.007c36.475-.4,82.632,15.474,101.287,49.127,18.114,32.68-.244,65.219,6.189,98.676,6.347,33.006,36.346,50.719,65.8,61.073,23.3,8.193,47.923,13.476,69.253,25.93,36.453,21.285,58.916,61.769,65.874,103.4,4.179,25,2.986,52.073-10.213,73.713-16.245,26.633-48.234,40.456-79.362,42.524-35.128,2.333-74.219-6.057-106.434-20.005-26.423-11.439-51.276-26.448-78.3-36.385-66.738-24.537-132.48,6.775-190.062,40.442-73.916,43.219-150.258,84.882-238.634,70.014C86.133,497.157,16.048,455.615,2.8,383.4c-5.607-30.549-3.008-62.947,9.88-91.206Q13.839,289.642,15.112,287.169Z" transform="translate(125.154 0)" fill="#fff" opacity="0.11" style="mix-blend-mode:overlay;isolation:isolate"/><path d="M15.111,287.169c17.715-34.453,50.7-57.088,87.588-67.785,43.738-12.681,85.825-5.917,129.709.815,40.462,6.207,85.463,7.935,119.6-18.361C405,161.022,410.063,81.949,458.583,36.195A134.313,134.313,0,0,1,548.268.007c36.474-.4,82.632,15.474,101.287,49.128,18.113,32.68-.244,65.219,6.188,98.674,12.581,65.428,102.934,61.539,146.59,94.017,20.86,15.517,34.9,38.67,44.514,62.826,10.673,26.808,16.486,56.673,9.261,84.61-11.968,46.276-56.921,63.6-100.7,65.259-32.533,1.236-64.873-7.137-94.75-20.072-26.422-11.44-51.276-26.449-78.3-36.385-66.738-24.539-132.48,6.775-190.061,40.442-73.918,43.218-150.259,84.883-238.634,70.013C86.133,497.157,16.049,455.615,2.794,383.4c-5.606-30.548-3.007-62.946,9.88-91.2Q13.84,289.642,15.111,287.169Z" transform="translate(77.891 12.415)" fill="#fff" opacity="0.22" style="mix-blend-mode:overlay;isolation:isolate"/><path d="M15.112,287.169c17.715-34.453,50.7-57.089,87.588-67.785,43.738-12.681,85.825-5.917,129.709.813,40.462,6.207,85.463,7.935,119.6-18.36C405,161.023,410.064,81.949,458.584,36.195A134.306,134.306,0,0,1,548.268.007c36.475-.4,82.633,15.473,101.287,49.128,18.115,32.679-.243,65.219,6.189,98.672,12.581,65.429,102.934,61.541,146.591,94.017,20.859,15.518,34.9,38.672,44.514,62.826,10.673,26.809,16.486,56.674,9.26,84.61-11.967,46.276-56.921,63.6-100.7,65.261-32.532,1.236-64.873-7.137-94.749-20.072-26.423-11.44-51.276-26.449-78.3-36.386-66.738-24.537-132.48,6.775-190.061,40.442-73.917,43.219-150.259,84.882-238.635,70.014C86.133,497.156,16.049,455.615,2.8,383.4c-5.607-30.549-3.007-62.946,9.88-91.206Q13.841,289.641,15.112,287.169Z" transform="translate(564.713 766.841)" fill="#fff" opacity="0.17" style="mix-blend-mode:overlay;isolation:isolate"/><path d="M632.125,127.541c-3.382,29.741-20.932,54.914-44.53,72.432-27.977,20.768-60.041,26.955-93.386,33.637-30.745,6.161-63.537,16.779-80.927,44.921-26.994,43.68-9.185,102.547-31.628,148.641a101.5,101.5,0,0,1-54.6,50c-26.09,9.918-63.548,10.548-86.073-9.015-21.874-19-17.512-47.516-31.2-70.159-26.779-44.284-90.623-17.612-130.787-29.721-19.192-5.785-35.553-18.927-49.011-33.962C15.04,317.622,2.765,297.427.379,275.194c-3.952-36.827,23.638-61.292,54.633-74.055,23.031-9.484,48.532-11.927,73.5-10.4,22.081,1.35,44,5.713,66.108,5.811,54.59.241,93.319-39.89,125.547-79.58C361.536,66.018,405.07,15.559,472.58,3.055,524.167-6.5,585.771,5.23,614.875,54.275c12.311,20.747,19.231,45.005,17.637,68.967Q632.368,125.406,632.125,127.541Z" transform="translate(0 507.532)" fill="#912bd7" opacity="0.15" style="mix-blend-mode:color-burn;isolation:isolate"/><circle cx="24.819" cy="24.819" r="24.819" transform="translate(583.612 746.202)" fill="#fff" opacity="0.17" style="mix-blend-mode:overlay;isolation:isolate"/><ellipse cx="12.41" cy="12.41" rx="12.41" ry="12.41" transform="translate(568.854 828.418) rotate(99.217)" fill="#fff" opacity="0.17" style="mix-blend-mode:overlay;isolation:isolate"/><ellipse cx="12.41" cy="12.41" rx="12.41" ry="12.41" transform="translate(579.813 484.305) rotate(100.476)" fill="#fff" opacity="0.17" style="mix-blend-mode:overlay;isolation:isolate"/><circle cx="24.819" cy="24.819" r="24.819" transform="translate(582.531 416.117)" fill="#fff" opacity="0.17" style="mix-blend-mode:overlay;isolation:isolate"/><circle cx="62.631" cy="62.631" r="62.631" transform="translate(1197.28 574.039) rotate(97.033)" fill="#fff" opacity="0.104" style="mix-blend-mode:overlay;isolation:isolate"/><ellipse cx="62.631" cy="62.631" rx="62.631" ry="62.631" transform="translate(292.839 772.152) rotate(97.065)" fill="#fff" opacity="0.17" style="mix-blend-mode:overlay;isolation:isolate"/><rect width="942.874" height="628.582" transform="translate(222.43 318.341)" fill="none"/></g></g></g><g transform="translate(8994.658 15080)" clip-path="url(#i)"><path d="M1299.213,0H20.787C9.307,0,0,8.4,0,18.772V488.063c0,10.367,9.307,18.772,20.787,18.772H1299.213c11.48,0,20.787-8.4,20.787-18.772V18.772C1320,8.4,1310.693,0,1299.213,0Z" transform="translate(-8850.325 -15010)" fill="url(#b)"/><g transform="translate(-9071.988 -15226.004)" clip-path="url(#k)"><g clip-path="url(#l)"><g style="mix-blend-mode:multiply;isolation:isolate"><g clip-path="url(#m)"><path d="M.241,208.411c124.149-68.158,249.291,5.935,378.384,16.646,63.14,5.238,157.936,10.851,213.017-27.14C651.015,156.963,622.791,57.835,614.92.068" transform="translate(0.212 0.06)" fill="none" stroke="#35b5d5" stroke-miterlimit="10" stroke-width="1"/><path d="M2.961,213.156c123.379-70.32,248.554,2.919,377.393,14.941,62.836,5.861,155.086,11.337,210.259-25.936,60.47-40.852,34.942-139.077,27.386-198" transform="translate(2.602 3.656)" fill="none" stroke="#35b5d5" stroke-miterlimit="10" stroke-width="1"/><path d="M6.582,218.755c121.961-72.89,246.647-1.133,374.907,11.833,62.8,6.348,152.541,11.6,208.151-24.722,62-40.5,39.93-137.422,32.934-197.843" transform="translate(5.783 7.049)" fill="none" stroke="#35b5d5" stroke-miterlimit="10" stroke-width="1"/><path d="M11.009,225.119c58.145-36.749,115.523-43.7,182.219-30.74,63.213,12.288,124.58,31.356,188.867,38.213,62.982,6.718,150.309,11.674,206.624-23.5,63.9-39.915,45.953-135.169,39.772-197.413" transform="translate(9.673 10.26)" fill="none" stroke="#35b5d5" stroke-miterlimit="10" stroke-width="1"/><path d="M16.149,232.156c56.488-38.023,112.8-47.044,179.138-35.068,62.653,11.311,123.441,30.073,186.947,37.076,63.322,6.983,148.395,11.58,205.608-22.276,66.1-39.111,52.851-132.378,47.745-196.737" transform="translate(14.189 13.312)" fill="none" stroke="#35b5d5" stroke-miterlimit="10" stroke-width="1"/><path d="M21.9,239.776c54.573-39.342,109.618-50.722,175.512-39.913,61.926,10.159,122,28.48,184.55,35.5,63.784,7.156,146.8,11.362,205.038-21.046,68.5-38.117,60.463-129.118,56.7-195.85" transform="translate(19.245 16.223)" fill="none" stroke="#35b5d5" stroke-miterlimit="10" stroke-width="1"/><path d="M28.181,247.891C80.615,207.221,134.2,193.216,199.6,202.7c61.049,8.852,120.308,26.624,181.755,33.544,64.325,7.246,145.507,11.061,204.845-19.81,71.045-36.962,68.625-125.476,66.493-194.787" transform="translate(24.76 19.017)" fill="none" stroke="#35b5d5" stroke-miterlimit="10" stroke-width="1"/><path d="M34.885,256.409C85,214.445,136.959,197.577,201.835,205.581c60.04,7.409,118.4,24.546,178.631,31.283,64.911,7.261,144.5,10.716,204.957-18.57,73.662-35.678,77.184-121.544,76.968-193.577" transform="translate(30.65 21.716)" fill="none" stroke="#35b5d5" stroke-miterlimit="10" stroke-width="1"/><path d="M41.921,265.243c47.66-43.2,97.858-63.138,162.182-56.743,58.921,5.857,116.334,22.3,175.253,28.782,65.522,7.21,143.736,10.362,205.311-17.328C660.96,185.647,670.659,102.532,672.639,27.7" transform="translate(36.832 24.34)" fill="none" stroke="#35b5d5" stroke-miterlimit="10" stroke-width="1"/><path d="M49.194,274.3c45.117-44.335,93.447-67.521,157.2-62.854,57.709,4.221,114.15,19.93,171.693,26.113,66.132,7.1,143.181,10.03,205.835-16.085,78.9-32.887,94.918-113.212,99.356-190.847" transform="translate(43.222 26.91)" fill="none" stroke="#35b5d5" stroke-miterlimit="10" stroke-width="1"/><path d="M56.609,283.494c42.537-45.359,88.918-71.92,152.1-69.086,56.422,2.53,111.891,17.486,168.024,23.34,66.724,6.96,142.787,9.75,206.458-14.839C664.641,191.456,687.036,113.9,694.16,33.516" transform="translate(49.737 29.447)" fill="none" stroke="#35b5d5" stroke-miterlimit="10" stroke-width="1"/><path d="M64.072,292.731c39.971-46.257,84.351-76.277,146.952-75.356,55.086.81,109.607,15.023,164.32,20.535,67.4,6.789,142.359,9.4,207.118-13.6,83.955-29.808,112.688-105.095,122.656-187.92" transform="translate(56.294 31.976)" fill="none" stroke="#35b5d5" stroke-miterlimit="10" stroke-width="1"/><path d="M71.488,301.924c37.469-47.027,79.829-80.536,141.846-81.586,53.722-.911,107.347,12.572,160.651,17.76,67.974,6.618,142.047,9.168,207.745-12.35C668.082,197.468,703.061,124.46,716,39.282" transform="translate(62.81 34.513)" fill="none" stroke="#35b5d5" stroke-miterlimit="10" stroke-width="1"/><path d="M78.761,310.983c35.761-48.66,76.748-85.6,139.52-87.875,51.56-1.867,103.363,10.436,154.506,15.247C442.5,244.912,517.567,247.775,585.06,226,671.8,198.011,711,128.208,726.639,42.207" transform="translate(69.2 37.083)" fill="none" stroke="#35b5d5" stroke-miterlimit="10" stroke-width="1"/><path d="M85.8,319.815c33.443-49.169,72.48-89.63,134.679-93.874,50.273-3.428,101.322,8.26,151.2,12.835,70.108,6.43,144.592,9.472,212.776-11.078,88.965-26.813,133.805-94.37,152.432-182.5" transform="translate(75.382 39.707)" fill="none" stroke="#35b5d5" stroke-miterlimit="10" stroke-width="1"/><path d="M92.5,328.334c31.423-49.757,68.438-93.19,130.138-99.588,48.975-5.082,99.512,6.256,148.147,10.655,70.4,6.367,144.3,9.628,213.032-9.8,91.063-25.744,141.237-91.263,162.766-181.332" transform="translate(81.272 42.405)" fill="none" stroke="#35b5d5" stroke-miterlimit="10" stroke-width="1"/><path d="M98.778,336.449c29.515-50.123,64.795-96.72,125.985-104.943,47.835-6.429,97.84,4.465,145.413,8.777,70.553,6.395,143.837,9.889,212.966-8.535,93.019-24.792,148.16-88.5,172.428-180.3" transform="translate(86.787 45.199)" fill="none" stroke="#35b5d5" stroke-miterlimit="10" stroke-width="1"/><path d="M104.533,344.069c27.848-50.448,61.556-99.96,122.3-109.853,46.83-7.625,96.416,2.944,143.071,7.268,70.562,6.539,143.159,10.252,212.509-7.276,94.815-23.965,154.5-86.087,181.274-179.45" transform="translate(91.843 48.111)" fill="none" stroke="#35b5d5" stroke-miterlimit="10" stroke-width="1"/><path d="M109.672,351.106c26.438-50.754,58.778-102.887,119.184-114.238,46-8.643,95.288,1.738,141.19,6.19,164.676,15.972,344.767-1.779,400.742-184.826" transform="translate(96.358 51.163)" fill="none" stroke="#35b5d5" stroke-miterlimit="10" stroke-width="1"/><path d="M114.1,357.469c24.835-50.174,55.535-104.206,114.366-117.523,46-10.413,96.049.368,142.122,5.123,164.6,16.99,347.838-.952,406.116-183.183" transform="translate(100.249 54.373)" fill="none" stroke="#35b5d5" stroke-miterlimit="10" stroke-width="1"/><path d="M117.721,363.069c24-50.508,53.861-106.376,112.639-120.588,45.618-11.031,95.658-.092,141.363,5.08,164.336,18.6,349.764-.808,409.556-181.813" transform="translate(103.43 57.766)" fill="none" stroke="#35b5d5" stroke-miterlimit="10" stroke-width="1"/><path d="M120.441,367.816c23.452-50.852,52.793-108.159,111.717-122.9,45.537-11.39,95.734-.071,141.294,5.687,163.718,20.689,350.6-1.214,410.907-180.761" transform="translate(105.82 61.363)" fill="none" stroke="#35b5d5" stroke-miterlimit="10" stroke-width="1"/></g></g><g transform="translate(475.578 483.853)" style="mix-blend-mode:multiply;isolation:isolate"><g clip-path="url(#n)"><path d="M253.4,465.97c124.149-68.158,249.291,5.935,378.384,16.646,63.14,5.239,157.936,10.851,213.017-27.14,59.373-40.953,31.147-140.082,23.278-197.849" transform="translate(-252.943 -257.501)" fill="none" stroke="#35b5d5" stroke-miterlimit="10" stroke-width="1"/><path d="M256.116,470.716C379.5,400.4,504.67,473.635,633.509,485.654c62.835,5.863,155.086,11.339,210.259-25.934,60.47-40.852,34.942-139.077,27.386-198" transform="translate(-250.553 -253.904)" fill="none" stroke="#35b5d5" stroke-miterlimit="10" stroke-width="1"/><path d="M259.737,476.315c121.961-72.89,246.647-1.133,374.907,11.833,62.8,6.348,152.541,11.6,208.151-24.722,62.005-40.5,39.93-137.422,32.934-197.843" transform="translate(-247.372 -250.511)" fill="none" stroke="#35b5d5" stroke-miterlimit="10" stroke-width="1"/><path d="M264.164,482.678c58.145-36.749,115.523-43.7,182.217-30.74,63.215,12.288,124.581,31.356,188.869,38.213,62.982,6.718,150.309,11.674,206.624-23.5,63.9-39.915,45.953-135.169,39.77-197.413" transform="translate(-243.482 -247.301)" fill="none" stroke="#35b5d5" stroke-miterlimit="10" stroke-width="1"/><path d="M269.3,489.715c56.49-38.023,112.806-47.044,179.138-35.068,62.655,11.311,123.443,30.073,186.947,37.076C698.712,498.706,783.783,503.3,841,469.447c66.1-39.111,52.851-132.378,47.743-196.737" transform="translate(-238.967 -244.249)" fill="none" stroke="#35b5d5" stroke-miterlimit="10" stroke-width="1"/><path d="M275.059,497.336c54.573-39.342,109.618-50.722,175.512-39.913,61.926,10.16,122,28.48,184.55,35.5,63.786,7.156,146.8,11.362,205.04-21.044,68.5-38.119,60.461-129.12,56.7-195.852" transform="translate(-233.91 -241.337)" fill="none" stroke="#35b5d5" stroke-miterlimit="10" stroke-width="1"/><path d="M281.336,505.451c52.434-40.67,106.017-54.675,171.421-45.194,61.049,8.85,120.308,26.624,181.755,33.544,64.325,7.246,145.507,11.061,204.845-19.81C910.4,437.03,907.982,348.516,905.849,279.2" transform="translate(-228.395 -238.543)" fill="none" stroke="#35b5d5" stroke-miterlimit="10" stroke-width="1"/><path d="M288.04,513.97C338.156,472,390.114,455.136,454.99,463.14c60.04,7.409,118.4,24.546,178.631,31.283,64.911,7.261,144.5,10.715,204.957-18.57,73.66-35.678,77.184-121.544,76.968-193.577" transform="translate(-222.505 -235.844)" fill="none" stroke="#35b5d5" stroke-miterlimit="10" stroke-width="1"/><path d="M295.076,522.8c47.66-43.2,97.858-63.138,162.182-56.743,58.921,5.857,116.334,22.3,175.253,28.782,65.522,7.21,143.736,10.362,205.311-17.328,76.294-34.307,85.993-117.422,87.973-192.251" transform="translate(-216.323 -233.221)" fill="none" stroke="#35b5d5" stroke-miterlimit="10" stroke-width="1"/><path d="M302.349,531.861c45.117-44.335,93.447-67.521,157.2-62.854,57.709,4.221,114.15,19.93,171.693,26.113,66.133,7.1,143.181,10.03,205.835-16.085,78.9-32.887,94.918-113.212,99.355-190.847" transform="translate(-209.933 -230.651)" fill="none" stroke="#35b5d5" stroke-miterlimit="10" stroke-width="1"/><path d="M309.764,541.053c42.537-45.359,88.918-71.919,152.1-69.086,56.422,2.53,111.892,17.486,168.024,23.34,66.724,6.96,142.787,9.75,206.458-14.839C917.8,449.015,940.191,371.457,947.315,291.075" transform="translate(-203.418 -228.114)" fill="none" stroke="#35b5d5" stroke-miterlimit="10" stroke-width="1"/><path d="M317.227,550.291c39.971-46.257,84.351-76.277,146.952-75.356,55.086.81,109.607,15.023,164.32,20.535,67.4,6.789,142.358,9.4,207.118-13.6C919.571,452.067,948.3,376.78,958.272,293.952" transform="translate(-196.861 -225.586)" fill="none" stroke="#35b5d5" stroke-miterlimit="10" stroke-width="1"/><path d="M324.643,559.483c37.469-47.027,79.829-80.536,141.846-81.586,53.722-.911,107.347,12.572,160.651,17.76,67.973,6.618,142.045,9.168,207.745-12.348,86.35-28.282,121.331-101.291,134.266-186.468" transform="translate(-190.345 -223.048)" fill="none" stroke="#35b5d5" stroke-miterlimit="10" stroke-width="1"/><path d="M331.916,568.542c35.761-48.66,76.747-85.6,139.52-87.875C522.994,478.8,574.8,491.1,625.942,495.913c69.713,6.558,144.78,9.421,212.273-12.356,86.739-27.987,125.936-97.791,141.579-183.791" transform="translate(-183.955 -220.478)" fill="none" stroke="#35b5d5" stroke-miterlimit="10" stroke-width="1"/><path d="M338.952,577.374c33.443-49.169,72.48-89.63,134.679-93.874,50.273-3.428,101.322,8.26,151.2,12.835,70.108,6.43,144.594,9.472,212.776-11.078,88.965-26.813,133.805-94.37,152.432-182.5" transform="translate(-177.773 -217.854)" fill="none" stroke="#35b5d5" stroke-miterlimit="10" stroke-width="1"/><path d="M345.656,585.894c31.423-49.757,68.437-93.19,130.138-99.59,48.975-5.08,99.512,6.258,148.147,10.657,70.4,6.367,144.3,9.628,213.032-9.8,91.063-25.744,141.237-91.263,162.766-181.332" transform="translate(-171.883 -215.155)" fill="none" stroke="#35b5d5" stroke-miterlimit="10" stroke-width="1"/><path d="M351.933,594.009c29.515-50.123,64.795-96.72,125.985-104.943,47.835-6.429,97.839,4.465,145.413,8.777,70.553,6.395,143.837,9.889,212.966-8.536,93.019-24.79,148.16-88.493,172.427-180.3" transform="translate(-166.368 -212.361)" fill="none" stroke="#35b5d5" stroke-miterlimit="10" stroke-width="1"/><path d="M357.688,601.629c27.848-50.448,61.556-99.961,122.3-109.853,46.83-7.625,96.416,2.944,143.071,7.268,70.562,6.539,143.159,10.252,212.509-7.276,94.815-23.965,154.5-86.087,181.274-179.45" transform="translate(-161.312 -209.449)" fill="none" stroke="#35b5d5" stroke-miterlimit="10" stroke-width="1"/><path d="M362.827,608.665c26.438-50.754,58.778-102.887,119.184-114.238,46-8.643,95.288,1.738,141.19,6.19,164.677,15.972,344.765-1.779,400.742-184.826" transform="translate(-156.797 -206.398)" fill="none" stroke="#35b5d5" stroke-miterlimit="10" stroke-width="1"/><path d="M367.255,615.029c24.837-50.174,55.535-104.206,114.366-117.523,46-10.413,96.049.368,142.122,5.123,164.6,16.99,347.838-.952,406.116-183.183" transform="translate(-152.906 -203.187)" fill="none" stroke="#35b5d5" stroke-miterlimit="10" stroke-width="1"/><path d="M370.876,620.629c24-50.508,53.861-106.376,112.639-120.588,45.618-11.031,95.659-.092,141.363,5.08,164.336,18.6,349.764-.808,409.556-181.813" transform="translate(-149.725 -199.794)" fill="none" stroke="#35b5d5" stroke-miterlimit="10" stroke-width="1"/><path d="M373.6,625.375c23.452-50.852,52.794-108.159,111.717-122.9,45.537-11.39,95.734-.071,141.293,5.687,163.718,20.689,350.6-1.214,410.907-180.761" transform="translate(-147.335 -196.198)" fill="none" stroke="#35b5d5" stroke-miterlimit="10" stroke-width="1"/></g></g><path d="M388.811,537.765c14.443-33.584,30.249-67.3,54.735-94.445s59.146-47.226,95.688-46.225c50.337,1.381,96.062,41.444,145.783,33.467,47.9-7.685,79.57-57.155,126.582-69.131,32.023-8.159,66.508,2.839,93.6,21.758s48.134,45.1,68.779,70.9c3.564,4.454,7.344,9.7,6.3,15.313-1.582,8.457-12.275,11.024-20.854,11.689-191.7,14.828-393.385-19.231-570.485,55.646" transform="translate(341.611 315.16)" opacity="0.54" fill="url(#b)"/><g transform="translate(599.953 221.782)" opacity="0.31"><g clip-path="url(#p)"><line x1="158.973" y2="141.555" transform="translate(3.759 3.757)" fill="none" stroke="#1551ab" stroke-linecap="round" stroke-miterlimit="10" stroke-width="4"/></g></g><g transform="translate(628.996 208.228)" opacity="0.31"><g clip-path="url(#q)"><line x1="158.973" y2="141.555" transform="translate(3.758 3.758)" fill="none" stroke="#1759bc" stroke-linecap="round" stroke-miterlimit="10" stroke-width="4"/></g></g><g transform="translate(628.233 181.875)" opacity="0.31"><g clip-path="url(#r)"><line x1="158.973" y2="141.555" transform="translate(3.757 3.758)" fill="none" stroke="#1759bc" stroke-linecap="round" stroke-miterlimit="10" stroke-width="4"/></g></g><path d="M930.456,63.958s50.435,79.634-26.545,153.961S680.934,191.372,601.3,292.244,370.36,289.589,431.413,127.665,930.456,63.958,930.456,63.958" transform="translate(366.599 30.266)" opacity="0.22" fill="url(#b)"/><circle cx="272.764" cy="272.764" r="272.764" transform="translate(956.207 477.387) rotate(-45)" fill="none" stroke="#35b5d5" stroke-miterlimit="10" stroke-width="0.5"/><circle cx="272.764" cy="272.764" r="272.764" transform="translate(1069.19 231.939)" fill="none" stroke="#35b5d5" stroke-miterlimit="10" stroke-width="0.5"/><circle cx="272.763" cy="272.763" r="272.763" transform="translate(1076.146 197.844)" fill="none" stroke="#35b5d5" stroke-miterlimit="10" stroke-width="0.5"/><circle cx="272.763" cy="272.763" r="272.763" transform="translate(1048.565 197.844)" fill="none" stroke="#35b5d5" stroke-miterlimit="10" stroke-width="0.5"/><path d="M555.834,398.5c0-160.848,130.394-291.242,291.242-291.242,386.325,15.341,386.216,567.2,0,582.483C686.228,689.743,555.834,559.35,555.834,398.5Z" transform="translate(488.357 94.239)" fill="none" stroke="#35b5d5" stroke-miterlimit="10" stroke-width="0.5" stroke-dasharray="3.007 3.007"/><path d="M513.586,232.9a5.025,5.025,0,1,1-7.107,0,5.024,5.024,0,0,1,7.107,0" transform="translate(443.701 203.337)" fill="#35b5d5" opacity="0.14"/><path d="M533.839,212.652a5.025,5.025,0,1,1-7.107,0,5.024,5.024,0,0,1,7.107,0" transform="translate(461.496 185.543)" fill="#35b5d5" opacity="0.27"/><path d="M543.966,202.525a5.025,5.025,0,1,1-7.107,0,5.024,5.024,0,0,1,7.107,0" transform="translate(470.393 176.645)" fill="#35b5d5" opacity="0.44"/><path d="M554.092,192.4a5.025,5.025,0,1,1-7.107,0,5.024,5.024,0,0,1,7.107,0" transform="translate(479.29 167.748)" fill="#35b5d5" opacity="0.44"/><path d="M564.219,182.272a5.025,5.025,0,1,1-7.107,0,5.024,5.024,0,0,1,7.107,0" transform="translate(488.187 158.851)" fill="#35b5d5" opacity="0.44"/><path d="M513.725,243.586a5.025,5.025,0,1,1-7.107,0,5.024,5.024,0,0,1,7.107,0" transform="translate(443.823 212.721)" fill="#35b5d5" opacity="0.14"/><path d="M533.978,223.333a5.025,5.025,0,1,1-7.107,0,5.024,5.024,0,0,1,7.107,0" transform="translate(461.617 194.927)" fill="#35b5d5" opacity="0.44"/><path d="M544.1,213.207a5.025,5.025,0,1,1-7.107,0,5.024,5.024,0,0,1,7.107,0" transform="translate(470.514 186.03)" fill="#35b5d5" opacity="0.44"/><path d="M554.231,203.08a5.025,5.025,0,1,1-7.107,0,5.024,5.024,0,0,1,7.107,0" transform="translate(479.412 177.133)" fill="#35b5d5" opacity="0.44"/><path d="M564.357,192.954a5.025,5.025,0,1,1-7.107,0,5.024,5.024,0,0,1,7.107,0" transform="translate(488.308 168.236)" fill="#35b5d5" opacity="0.44"/><g transform="translate(322.199 551.239)" opacity="0.13" style="mix-blend-mode:multiply;isolation:isolate"><g clip-path="url(#t)"><path d="M173.107,628.811S193.015,385.32,379.844,308.752s180.7,200.61,372.129,142.419,226.644,150.076-1.533,197.548-577.332-19.908-577.332-19.908" transform="translate(-173.107 -295.269)" fill="url(#b)"/></g></g><path d="M466.541,254.2l10.25-17.755h-20.5Z" transform="translate(430.898 262.741)" fill="#35b5d5" opacity="0.13"/><path d="M320.9,178.726l10.25-17.755h-20.5Z" transform="translate(99.934 104.037)" fill="#35b5d5" opacity="0.13"/><path d="M87.383,360.408s22.121-91.631,129.066-88.037,136.05,178.646,263.91,165.68S639.11,605.8,480.317,674.582,87.383,360.408,87.383,360.408" transform="translate(76.775 239.216)" opacity="0.47" fill="url(#b)"/><path d="M112.951,344.2A92.514,92.514,0,0,1,99.7,316.542l2.115-.6c11.089,39.1,50.1,69.11,90.738,69.805,17.416.3,34.713-4.187,51.442-8.525,8.54-2.217,17.377-4.509,26.163-6.154,15.373-2.874,53.448-6.949,74.992,17.291,13.257,14.926,15.844,35.4,18.339,55.208.919,7.283,1.865,14.818,3.338,21.923,9.153,44.3,42.885,81.868,85.94,95.724s92.371,3.008,125.637-27.64l1.492,1.619c-33.843,31.168-84.007,42.207-127.8,28.113s-78.109-52.319-87.421-97.372c-1.49-7.193-2.442-14.768-3.365-22.094-2.453-19.474-5-39.61-17.8-54.023-20.8-23.4-57.94-19.4-72.946-16.59-8.713,1.632-17.51,3.915-26.017,6.12-16.87,4.375-34.311,8.9-52.028,8.6-31.286-.532-61.629-18.059-79.566-43.745" transform="translate(87.596 277.588)" fill="#35b5d5" opacity="0.31"/><path d="M127.2,366.533a61.142,61.142,0,0,1-11.009-30.741,61.981,61.981,0,0,1,24.961-53.136l1.289,1.783a58.479,58.479,0,0,0,6.511,98.822c23.4,12.635,52.436,8,77.808,2.671l1.137-.239c26.441-5.561,53.779-11.311,78.569-1.328,24.982,10.058,44.168,35.462,57.036,75.509,2.1,6.553,4.078,13.317,5.987,19.861,7.064,24.18,14.349,49.167,29.827,69.1A99.515,99.515,0,0,0,545.5,560.825L547,562.437a101.713,101.713,0,0,1-149.417-12.258c-15.711-20.246-23.079-45.453-30.2-69.831-1.9-6.528-3.877-13.278-5.976-19.8-12.658-39.4-31.416-64.338-55.757-74.141-24.17-9.733-51.181-4.054-77.3,1.439l-1.138.239c-25.758,5.414-55.25,10.1-79.307-2.889a60.537,60.537,0,0,1-20.706-18.66" transform="translate(101.98 248.342)" fill="#35b5d5" opacity="0.31"/><g opacity="0.47"><g transform="translate(643.589 545.419)" opacity="0.31"><g clip-path="url(#w)"><line x1="272.595" y2="246.384" transform="translate(3.757 3.757)" fill="none" stroke="#35b5d5" stroke-linecap="round" stroke-miterlimit="10" stroke-width="4"/></g></g><g transform="translate(693.389 521.829)" opacity="0.31"><g clip-path="url(#x)"><line x1="272.595" y2="246.384" transform="translate(3.758 3.757)" fill="none" stroke="#35b5d5" stroke-linecap="round" stroke-miterlimit="10" stroke-width="4"/></g></g><g transform="translate(692.079 475.959)" opacity="0.31"><g clip-path="url(#y)"><line x1="272.595" y2="246.384" transform="translate(3.757 3.757)" fill="none" stroke="#35b5d5" stroke-linecap="round" stroke-miterlimit="10" stroke-width="4"/></g></g><path d="M410.612,315.6a7.018,7.018,0,1,1-7.02-7.02,7.02,7.02,0,0,1,7.02,7.02" transform="translate(348.432 271.121)" fill="#35b5d5" opacity="0.16"/><path d="M555.953,172.452a7.018,7.018,0,1,1-7.02-7.02,7.021,7.021,0,0,1,7.02,7.02" transform="translate(476.129 145.349)" fill="#35b5d5" opacity="0.38"/><path d="M509.659,347.226a7.018,7.018,0,1,1-7.02-7.02,7.02,7.02,0,0,1,7.02,7.02" transform="translate(435.455 298.906)" fill="#35b5d5" stroke="#1759bc" stroke-width="1" opacity="0.16"/><path d="M523.713,222.778a5.025,5.025,0,1,1-7.107,0,5.024,5.024,0,0,1,7.107,0" transform="translate(452.599 194.439)" fill="#35b5d5" opacity="0.27"/><path d="M523.851,233.46a5.025,5.025,0,1,1-7.107,0,5.024,5.024,0,0,1,7.107,0" transform="translate(452.72 203.824)" fill="#35b5d5" opacity="0.27"/><g transform="translate(242.116 391.256)" opacity="0.19"><g clip-path="url(#z)"><path d="M214.422,240.187c0,17.286-14.609,31.3-32.628,31.3s-32.63-14.012-32.63-31.3,14.609-31.3,32.63-31.3,32.628,14.012,32.628,31.3" transform="translate(-128.437 -189.006)" fill="#35b5d5"/><path d="M190.755,299.963c-29.42,0-53.357-22.959-53.357-51.181S161.334,197.6,190.755,197.6s53.357,22.961,53.357,51.181-23.936,51.181-53.357,51.181m0-92.357c-23.669,0-42.925,18.472-42.925,41.175s19.256,41.175,42.925,41.175,42.926-18.47,42.926-41.175-19.258-41.175-42.926-41.175" transform="translate(-137.398 -197.603)" fill="#35b5d5"/></g></g><path d="M354.394,307.5l-17.856,30.927h35.712Z" transform="translate(295.684 279.169)" fill="#35b5d5" opacity="0.16"/><path d="M359.463,344.728l10.25-17.755h-20.5Z" transform="translate(306.82 296.279)" fill="#35b5d5" opacity="0.16"/><path d="M461.472,216.969l-17.856,30.926h35.712Z" transform="translate(389.762 154.63)" fill="#35b5d5" opacity="0.17"/><path d="M315.827,141.5l-17.856,30.926h35.712Z" transform="translate(63.798 99.121)" fill="#35b5d5" opacity="0.29"/><g transform="translate(890.576 146.92)" opacity="0.46"><g clip-path="url(#aa)"><path d="M555.422,122.87c0,18.435-15.579,33.377-34.8,33.377s-34.8-14.942-34.8-33.377,15.579-33.377,34.8-33.377,34.8,14.942,34.8,33.377" transform="translate(-463.725 -68.291)" fill="#35b5d5"/><path d="M530.964,187.368c-31.375,0-56.9-24.484-56.9-54.581s25.526-54.581,56.9-54.581,56.9,24.486,56.9,54.581-25.527,54.581-56.9,54.581m0-98.491c-25.241,0-45.776,19.7-45.776,43.91S505.723,176.7,530.964,176.7,576.74,157,576.74,132.787s-20.535-43.91-45.776-43.91" transform="translate(-474.063 -78.208)" fill="#35b5d5"/></g></g></g><path d="M890.221,205.924c-29.21-4.022-58.364,15.591-71.2,42.139s-11.437,58.212-2.437,86.292c6.586,20.554,17.17,40.779,15.722,62.313-2.352,34.972-34.377,59.123-54.865,87.562a147.108,147.108,0,0,0-27.431,79.053c-.582,13.318.787,27.114,7.079,38.866,14.925,27.875,50.863,35.151,82.2,39.383,24.9,3.363,51.7,6.417,73.91-5.341,31.752-16.814,42.056-56.922,45.757-92.658,7.625-73.6,1.155-148.143-12.692-220.83-8.484-44.538-20.623-90.333-50.221-124.679" transform="translate(658.858 173.984)" fill="url(#b)"/></g></g></g></g></svg>