<svg xmlns="http://www.w3.org/2000/svg" xmlns:xlink="http://www.w3.org/1999/xlink" width="1600" height="220" viewBox="0 0 1600 220"><defs><linearGradient id="a" x1="0.5" x2="0.5" y2="1" gradientUnits="objectBoundingBox"><stop offset="0" stop-color="#175ec9"/><stop offset="1" stop-color="#184079"/></linearGradient><clipPath id="f"><rect width="1600" height="220" transform="translate(-6487 -10695)" fill="#fff"/></clipPath><clipPath id="g"><path d="M1574.8,0H25.2C11.281,0,0,10.187,0,22.754V591.592c0,12.566,11.281,22.753,25.2,22.753H1574.8c13.916,0,25.2-10.187,25.2-22.753V22.754C1600,10.187,1588.719,0,1574.8,0Z" transform="translate(-4764.336 -13158.436)" fill="url(#a)"/></clipPath><clipPath id="i"><rect width="1970.432" height="1121.314" fill="none"/></clipPath><clipPath id="j"><rect width="1970.432" height="1121.314" fill="none" stroke="#35b5d5" stroke-width="1"/></clipPath><clipPath id="k"><rect width="1080.083" height="520.692" fill="none" stroke="#35b5d5" stroke-width="1"/></clipPath><clipPath id="l"><rect width="1080.083" height="520.691" fill="none" stroke="#1751a8" stroke-width="1"/></clipPath><clipPath id="n"><rect width="201.805" height="180.69" stroke="#1551ab" stroke-width="1" fill="url(#a)"/></clipPath><clipPath id="o"><rect width="201.805" height="180.69" stroke="#1759bc" stroke-width="1" fill="url(#a)"/></clipPath><clipPath id="p"><rect width="201.803" height="180.69" stroke="#1759bc" stroke-width="1" fill="url(#a)"/></clipPath><clipPath id="r"><rect width="891.76" height="448.957" fill="url(#a)"/></clipPath><clipPath id="u"><rect width="339.526" height="307.756" fill="#35b5d5" stroke="#35b5d5" stroke-width="1"/></clipPath><clipPath id="v"><rect width="339.528" height="307.755" fill="#35b5d5" stroke="#35b5d5" stroke-width="1"/></clipPath><clipPath id="x"><rect width="137.94" height="132.317" fill="#35b5d5"/></clipPath><clipPath id="y"><rect width="137.94" height="132.315" fill="#35b5d5"/></clipPath></defs><g transform="translate(6487 10695)" clip-path="url(#f)"><g transform="translate(-1722.664 2432.436)" clip-path="url(#g)"><path d="M1574.8,0H25.2C11.281,0,0,10.187,0,22.754V591.592c0,12.566,11.281,22.753,25.2,22.753H1574.8c13.916,0,25.2-10.187,25.2-22.753V22.754C1600,10.187,1588.719,0,1574.8,0Z" transform="translate(-4764.336 -13158.436)" fill="url(#a)"/><g transform="translate(-5033.02 -13420.259)" opacity="0.48"><g clip-path="url(#i)"><g clip-path="url(#j)"><g style="mix-blend-mode:multiply;isolation:isolate"><g clip-path="url(#k)"><path d="M.241,252.6c150.484-82.615,302.17,7.193,458.648,20.177,76.533,6.349,191.438,13.153,258.2-32.9,71.968-49.641,37.756-169.8,28.215-239.817" transform="translate(0.308 0.087)" fill="none" stroke="#35b5d5" stroke-miterlimit="10" stroke-width="1"/><path d="M2.961,257.488c149.55-85.236,301.278,3.539,457.446,18.11,76.164,7.1,187.983,13.742,254.859-31.438,73.3-49.518,42.354-168.578,33.2-240" transform="translate(3.781 5.314)" fill="none" stroke="#35b5d5" stroke-miterlimit="10" stroke-width="1"/><path d="M6.582,263.456C154.413,175.1,305.549,262.083,461.015,277.8c76.126,7.694,184.9,14.063,252.3-29.967,75.156-49.092,48.4-166.572,39.92-239.81" transform="translate(8.406 10.246)" fill="none" stroke="#35b5d5" stroke-miterlimit="10" stroke-width="1"/><path d="M11.009,270.395c70.478-44.545,140.028-52.972,220.871-37.26,76.622,14.895,151.006,38.007,228.93,46.318C537.152,287.6,643,293.6,711.263,250.967c77.46-48.381,55.7-163.842,48.208-239.289" transform="translate(14.06 14.914)" fill="none" stroke="#35b5d5" stroke-miterlimit="10" stroke-width="1"/><path d="M16.149,278.187c68.47-46.088,136.733-57.023,217.137-42.507,75.943,13.71,149.626,36.452,226.6,44.941,76.754,8.464,179.872,14.036,249.221-27,80.117-47.407,64.061-160.458,57.872-238.469" transform="translate(20.624 19.349)" fill="none" stroke="#35b5d5" stroke-miterlimit="10" stroke-width="1"/><path d="M21.9,286.72c66.15-47.687,132.871-61.482,212.742-48.379,75.062,12.315,147.881,34.521,223.7,43.028,77.314,8.673,177.939,13.772,248.531-25.51,83.032-46.2,73.288-156.507,68.729-237.394" transform="translate(27.973 23.582)" fill="none" stroke="#35b5d5" stroke-miterlimit="10" stroke-width="1"/><path d="M28.181,295.882c63.556-49.3,128.506-66.273,207.783-54.78,74,10.73,145.827,32.271,220.309,40.66,77.97,8.783,176.372,13.408,248.3-24.012,86.115-44.8,83.182-152.092,80.6-236.105" transform="translate(35.99 27.643)" fill="none" stroke="#35b5d5" stroke-miterlimit="10" stroke-width="1"/><path d="M34.885,305.556c60.746-50.866,123.726-71.312,202.363-61.609,72.776,8.981,143.518,29.753,216.522,37.918,78.68,8.8,175.147,12.989,248.433-22.509C791.491,216.109,795.76,112.03,795.5,24.717" transform="translate(44.551 31.566)" fill="none" stroke="#35b5d5" stroke-miterlimit="10" stroke-width="1"/><path d="M41.921,315.63c57.77-52.359,118.616-76.531,196.584-68.78,71.419,7.1,141.011,27.029,212.428,34.887,79.421,8.74,174.225,12.56,248.861-21C792.271,219.15,804.028,118.4,806.428,27.7" transform="translate(53.537 35.379)" fill="none" stroke="#35b5d5" stroke-miterlimit="10" stroke-width="1"/><path d="M49.194,325.99c54.687-53.739,113.27-81.843,190.55-76.187,69.95,5.117,138.363,24.158,208.113,31.652,80.161,8.612,173.553,12.157,249.5-19.5C792.989,222.1,812.406,124.731,817.784,30.628" transform="translate(62.825 39.115)" fill="none" stroke="#35b5d5" stroke-miterlimit="10" stroke-width="1"/><path d="M56.609,336.52c51.56-54.98,107.779-87.176,184.363-83.74,68.39,3.067,135.626,21.2,203.666,28.291,80.878,8.437,173.075,11.818,250.253-17.987C793.618,224.958,820.763,130.948,829.4,33.516" transform="translate(72.295 42.803)" fill="none" stroke="#35b5d5" stroke-miterlimit="10" stroke-width="1"/><path d="M64.072,347.106c48.45-56.069,102.244-92.457,178.123-91.341,66.771.981,132.857,18.21,199.175,24.891,81.693,8.229,172.556,11.392,251.052-16.479C794.186,228.046,829.014,136.789,841.1,36.394" transform="translate(81.826 46.479)" fill="none" stroke="#35b5d5" stroke-miterlimit="10" stroke-width="1"/><path d="M71.488,357.636c45.417-57,96.763-97.619,171.934-98.892,65.118-1.1,130.118,15.238,194.728,21.528,82.392,8.022,172.178,11.112,251.813-14.97,104.669-34.279,147.068-122.774,162.746-226.02" transform="translate(91.297 50.167)" fill="none" stroke="#35b5d5" stroke-miterlimit="10" stroke-width="1"/><path d="M78.761,368c43.347-58.981,93.028-103.76,169.115-106.516,62.5-2.263,125.288,12.649,187.28,18.481,84.5,7.949,175.491,11.42,257.3-14.976C797.594,231.06,845.106,146.45,864.067,42.207" transform="translate(100.585 53.902)" fill="none" stroke="#35b5d5" stroke-miterlimit="10" stroke-width="1"/><path d="M85.8,378.068c40.537-59.6,87.855-108.642,163.247-113.786,60.937-4.156,122.815,10.012,183.274,15.557,84.979,7.795,175.263,11.481,257.911-13.428,107.836-32.5,162.188-114.388,184.766-221.217" transform="translate(109.571 57.716)" fill="none" stroke="#35b5d5" stroke-miterlimit="10" stroke-width="1"/><path d="M92.5,387.742c38.089-60.311,82.955-112.958,157.743-120.713,59.364-6.16,120.62,7.583,179.572,12.916,85.327,7.717,174.906,11.67,258.22-11.884,110.38-31.205,171.2-110.621,197.292-219.8" transform="translate(118.133 61.638)" fill="none" stroke="#35b5d5" stroke-miterlimit="10" stroke-width="1"/><path d="M98.778,396.9c35.775-60.755,78.539-117.236,152.709-127.2,57.982-7.792,118.593,5.413,176.258,10.639,85.519,7.751,174.348,11.987,258.141-10.345,112.75-30.051,179.588-107.267,209-218.551" transform="translate(126.149 65.699)" fill="none" stroke="#35b5d5" stroke-miterlimit="10" stroke-width="1"/><path d="M104.533,405.438c33.756-61.149,74.614-121.164,148.248-133.155,56.763-9.243,116.867,3.568,173.419,8.81,85.53,7.927,173.526,12.426,257.587-8.819C798.714,243.225,871.058,167.926,903.513,54.759" transform="translate(133.499 69.932)" fill="none" stroke="#35b5d5" stroke-miterlimit="10" stroke-width="1"/><path d="M109.672,413.231c32.046-61.52,71.246-124.712,144.466-138.47,55.755-10.477,115.5,2.106,171.14,7.5,199.608,19.36,417.9-2.156,485.748-224.032" transform="translate(140.062 74.368)" fill="none" stroke="#35b5d5" stroke-miterlimit="10" stroke-width="1"/><path d="M114.1,420.169c30.1-60.817,67.315-126.31,138.625-142.453,55.757-12.622,116.423.446,172.269,6.21,199.517,20.594,421.622-1.154,492.262-222.04" transform="translate(145.716 79.034)" fill="none" stroke="#35b5d5" stroke-miterlimit="10" stroke-width="1"/><path d="M117.721,426.137c29.094-61.222,65.287-128.94,136.532-146.167,55.295-13.371,115.95-.112,171.349,6.157,199.2,22.546,423.956-.979,496.432-220.38" transform="translate(150.341 83.966)" fill="none" stroke="#35b5d5" stroke-miterlimit="10" stroke-width="1"/><path d="M120.441,431.022c28.427-61.639,63.991-131.1,135.414-148.97,55.2-13.806,116.041-.087,171.265,6.893,198.447,25.078,424.97-1.471,498.069-219.1" transform="translate(153.815 89.194)" fill="none" stroke="#35b5d5" stroke-miterlimit="10" stroke-width="1"/></g></g><g transform="translate(576.458 586.489)" style="mix-blend-mode:multiply;isolation:isolate"><g clip-path="url(#l)"><path d="M253.4,510.164c150.484-82.615,302.171,7.193,458.648,20.177,76.533,6.351,191.438,13.153,258.2-32.9,71.968-49.641,37.754-169.8,28.215-239.817" transform="translate(-252.847 -257.474)" fill="none" stroke="#1751a8" stroke-miterlimit="10" stroke-width="1"/><path d="M256.116,515.048c149.55-85.236,301.278,3.539,457.446,18.107,76.164,7.107,187.983,13.745,254.859-31.435,73.3-49.518,42.354-168.578,33.2-240" transform="translate(-249.374 -252.246)" fill="none" stroke="#1751a8" stroke-miterlimit="10" stroke-width="1"/><path d="M259.737,521.016C407.568,432.665,558.7,519.643,714.17,535.36c76.126,7.694,184.9,14.063,252.3-29.967,75.158-49.092,48.4-166.572,39.92-239.81" transform="translate(-244.749 -247.314)" fill="none" stroke="#1751a8" stroke-miterlimit="10" stroke-width="1"/><path d="M264.164,527.954c70.478-44.545,140.028-52.972,220.869-37.26,76.624,14.894,151.008,38.007,228.932,46.318,76.342,8.143,182.193,14.15,250.453-28.486,77.46-48.381,55.7-163.841,48.206-239.289" transform="translate(-239.095 -242.647)" fill="none" stroke="#1751a8" stroke-miterlimit="10" stroke-width="1"/><path d="M269.3,535.746c68.472-46.088,136.735-57.023,217.137-42.507,75.946,13.71,149.628,36.452,226.6,44.941,76.756,8.464,179.872,14.036,249.224-27,80.117-47.407,64.061-160.458,57.87-238.469" transform="translate(-232.533 -238.212)" fill="none" stroke="#1751a8" stroke-miterlimit="10" stroke-width="1"/><path d="M275.059,544.28C341.209,496.594,407.93,482.8,487.8,495.9c75.062,12.315,147.881,34.521,223.7,43.028,77.316,8.673,177.939,13.772,248.534-25.508,83.029-46.2,73.286-156.509,68.729-237.4" transform="translate(-225.182 -233.979)" fill="none" stroke="#1751a8" stroke-miterlimit="10" stroke-width="1"/><path d="M281.336,553.443c63.556-49.3,128.506-66.273,207.783-54.78,74,10.727,145.828,32.271,220.309,40.66C787.4,548.1,885.8,552.73,957.724,515.31c86.115-44.8,83.182-152.092,80.6-236.105" transform="translate(-217.165 -229.917)" fill="none" stroke="#1751a8" stroke-miterlimit="10" stroke-width="1"/><path d="M288.04,563.117C348.786,512.249,411.766,491.8,490.4,501.506c72.776,8.981,143.518,29.753,216.522,37.918,78.68,8.8,175.147,12.988,248.433-22.509,89.285-43.247,93.557-147.326,93.295-234.639" transform="translate(-208.604 -225.995)" fill="none" stroke="#1751a8" stroke-miterlimit="10" stroke-width="1"/><path d="M295.076,573.189c57.77-52.359,118.616-76.531,196.584-68.78,71.419,7.1,141.011,27.029,212.428,34.887,79.421,8.74,174.225,12.56,248.861-21,92.477-41.584,104.234-142.33,106.634-233.031" transform="translate(-199.618 -222.182)" fill="none" stroke="#1751a8" stroke-miterlimit="10" stroke-width="1"/><path d="M302.349,583.549c54.687-53.74,113.27-81.843,190.55-76.187,69.95,5.117,138.363,24.158,208.113,31.652,80.161,8.612,173.553,12.157,249.5-19.5,95.636-39.863,115.052-137.227,120.431-231.33" transform="translate(-190.33 -218.446)" fill="none" stroke="#1751a8" stroke-miterlimit="10" stroke-width="1"/><path d="M309.764,594.079c51.56-54.98,107.779-87.174,184.363-83.74,68.39,3.067,135.626,21.2,203.666,28.291,80.878,8.437,173.075,11.818,250.253-17.987,98.728-38.125,125.873-132.135,134.508-229.568" transform="translate(-180.86 -214.758)" fill="none" stroke="#1751a8" stroke-miterlimit="10" stroke-width="1"/><path d="M317.227,604.666c48.45-56.069,102.244-92.457,178.123-91.341,66.771.981,132.857,18.21,199.175,24.891,81.693,8.229,172.556,11.392,251.052-16.479,101.763-36.131,136.592-127.388,148.674-227.785" transform="translate(-171.329 -211.084)" fill="none" stroke="#1751a8" stroke-miterlimit="10" stroke-width="1"/><path d="M324.643,615.195c45.417-57,96.763-97.619,171.934-98.892,65.118-1.1,130.118,15.238,194.728,21.528,82.392,8.022,172.176,11.112,251.813-14.967,104.667-34.282,147.068-122.776,162.746-226.022" transform="translate(-161.858 -207.394)" fill="none" stroke="#1751a8" stroke-miterlimit="10" stroke-width="1"/><path d="M331.916,625.555c43.347-58.981,93.026-103.76,169.115-106.516,62.495-2.263,125.288,12.649,187.28,18.481,84.5,7.949,175.491,11.42,257.3-14.976,105.138-33.924,152.65-118.534,171.611-222.777" transform="translate(-152.57 -203.659)" fill="none" stroke="#1751a8" stroke-miterlimit="10" stroke-width="1"/><path d="M338.952,635.627c40.537-59.6,87.855-108.643,163.247-113.786,60.937-4.156,122.815,10.012,183.274,15.557,84.979,7.794,175.266,11.481,257.911-13.428,107.836-32.5,162.188-114.387,184.766-221.217" transform="translate(-143.584 -199.846)" fill="none" stroke="#1751a8" stroke-miterlimit="10" stroke-width="1"/><path d="M345.656,645.3c38.089-60.311,82.955-112.958,157.743-120.716,59.364-6.157,120.62,7.585,179.572,12.918,85.327,7.717,174.906,11.67,258.22-11.884,110.38-31.205,171.2-110.621,197.292-219.8" transform="translate(-135.022 -195.922)" fill="none" stroke="#1751a8" stroke-miterlimit="10" stroke-width="1"/><path d="M351.933,654.464c35.775-60.755,78.539-117.236,152.709-127.2,57.982-7.792,118.593,5.413,176.258,10.639,85.519,7.751,174.348,11.987,258.141-10.347,112.75-30.048,179.588-107.265,209-218.549" transform="translate(-127.006 -191.861)" fill="none" stroke="#1751a8" stroke-miterlimit="10" stroke-width="1"/><path d="M357.688,663c33.756-61.149,74.614-121.164,148.248-133.155,56.763-9.243,116.867,3.568,173.419,8.81,85.53,7.927,173.526,12.426,257.587-8.819,114.927-29.049,187.271-104.348,219.726-217.515" transform="translate(-119.657 -187.629)" fill="none" stroke="#1751a8" stroke-miterlimit="10" stroke-width="1"/><path d="M362.827,670.79c32.046-61.52,71.246-124.712,144.466-138.47,55.755-10.477,115.5,2.106,171.14,7.5,199.608,19.36,417.9-2.156,485.748-224.032" transform="translate(-113.093 -183.194)" fill="none" stroke="#1751a8" stroke-miterlimit="10" stroke-width="1"/><path d="M367.255,677.729c30.105-60.817,67.315-126.31,138.625-142.453,55.757-12.622,116.423.446,172.269,6.21,199.517,20.594,421.622-1.154,492.262-222.039" transform="translate(-107.439 -178.526)" fill="none" stroke="#1751a8" stroke-miterlimit="10" stroke-width="1"/><path d="M370.876,683.7c29.094-61.222,65.287-128.94,136.532-146.167,55.295-13.371,115.95-.112,171.349,6.157,199.2,22.545,423.956-.979,496.432-220.379" transform="translate(-102.814 -173.594)" fill="none" stroke="#1751a8" stroke-miterlimit="10" stroke-width="1"/><path d="M373.6,688.581c28.427-61.639,63.993-131.1,135.414-148.97,55.2-13.806,116.041-.087,171.265,6.893,198.447,25.078,424.969-1.471,498.069-219.1" transform="translate(-99.34 -168.368)" fill="none" stroke="#1751a8" stroke-miterlimit="10" stroke-width="1"/></g></g><path d="M388.811,575.748c17.506-40.708,36.666-81.575,66.345-114.479s71.692-57.244,115.986-56.03c61.015,1.674,116.439,50.235,176.707,40.566,58.064-9.316,96.449-69.278,153.433-83.795,38.815-9.889,80.616,3.441,113.456,26.373s58.344,54.664,83.369,85.94c4.32,5.4,8.9,11.763,7.631,18.561-1.918,10.251-14.879,13.362-25.278,14.168-232.368,17.973-476.83-23.311-691.5,67.45" transform="translate(496.548 458.101)" fill="url(#a)"/><g transform="translate(727.215 268.827)" opacity="0.31"><g clip-path="url(#n)"><line x1="192.695" y2="171.581" transform="translate(4.556 4.554)" fill="none" stroke="#1551ab" stroke-linecap="round" stroke-miterlimit="10" stroke-width="4"/></g></g><g transform="translate(762.419 252.398)" opacity="0.31"><g clip-path="url(#o)"><line x1="192.695" y2="171.581" transform="translate(4.556 4.555)" fill="none" stroke="#1759bc" stroke-linecap="round" stroke-miterlimit="10" stroke-width="4"/></g></g><g transform="translate(761.495 220.455)" opacity="0.31"><g clip-path="url(#p)"><line x1="192.695" y2="171.581" transform="translate(4.554 4.555)" fill="none" stroke="#1759bc" stroke-linecap="round" stroke-miterlimit="10" stroke-width="4"/></g></g><path d="M1039.318,70.217s61.133,96.526-32.175,186.619-270.275-32.178-366.8,90.091S360.413,343.71,434.416,147.438s604.9-77.221,604.9-77.221" transform="translate(534.871 -34.447)" opacity="0.11" fill="url(#a)"/><path d="M223.068,202.375a8.507,8.507,0,1,1-8.509-8.51,8.509,8.509,0,0,1,8.509,8.51" transform="translate(263.15 247.584)" fill="#35b5d5" opacity="0.44"/><circle cx="330.622" cy="330.622" r="330.622" transform="translate(1159.039 578.65) rotate(-45)" fill="none" stroke="#35b5d5" stroke-miterlimit="10" stroke-width="0.5"/><circle cx="330.622" cy="330.622" r="330.622" transform="translate(1295.988 281.138)" fill="none" stroke="#35b5d5" stroke-miterlimit="10" stroke-width="0.5"/><circle cx="330.622" cy="330.622" r="330.622" transform="translate(1304.42 239.811)" fill="none" stroke="#35b5d5" stroke-miterlimit="10" stroke-width="0.5"/><circle cx="330.622" cy="330.622" r="330.622" transform="translate(1270.988 239.811)" fill="none" stroke="#35b5d5" stroke-miterlimit="10" stroke-width="0.5"/><path d="M555.834,460.28c0-194.967,158.053-353.02,353.02-353.02,468.273,18.595,468.141,687.516,0,706.04C713.887,813.3,555.834,655.247,555.834,460.28Z" transform="translate(709.853 136.981)" fill="none" stroke="#35b5d5" stroke-miterlimit="10" stroke-width="0.5" stroke-dasharray="3.007 3.007"/><path d="M515.406,233.217a6.091,6.091,0,1,1-8.614,0,6.09,6.09,0,0,1,8.614,0" transform="translate(644.942 295.561)" fill="#35b5d5" opacity="0.28"/><path d="M535.658,212.964a6.091,6.091,0,1,1-8.614,0,6.09,6.09,0,0,1,8.614,0" transform="translate(670.808 269.696)" fill="#35b5d5" opacity="0.44"/><path d="M545.786,202.837a6.091,6.091,0,1,1-8.614,0,6.09,6.09,0,0,1,8.614,0" transform="translate(683.74 256.763)" fill="#35b5d5" opacity="0.44"/><path d="M555.912,192.711a6.091,6.091,0,1,1-8.614,0,6.09,6.09,0,0,1,8.614,0" transform="translate(696.672 243.831)" fill="#35b5d5" opacity="0.44"/><path d="M566.039,182.584a6.091,6.091,0,1,1-8.614,0,6.09,6.09,0,0,1,8.614,0" transform="translate(709.605 230.898)" fill="#35b5d5" opacity="0.44"/><path d="M515.545,243.9a6.091,6.091,0,1,1-8.614,0,6.09,6.09,0,0,1,8.614,0" transform="translate(645.119 309.202)" fill="#35b5d5" opacity="0.28"/><path d="M535.8,223.645a6.091,6.091,0,1,1-8.614,0,6.09,6.09,0,0,1,8.614,0" transform="translate(670.984 283.336)" fill="#35b5d5" opacity="0.44"/><path d="M545.924,213.519a6.091,6.091,0,1,1-8.614,0,6.089,6.089,0,0,1,8.614,0" transform="translate(683.917 270.405)" fill="#35b5d5" opacity="0.44"/><path d="M556.051,203.392a6.091,6.091,0,1,1-8.614,0,6.09,6.09,0,0,1,8.614,0" transform="translate(696.849 257.472)" fill="#35b5d5" opacity="0.44"/><path d="M566.177,193.266a6.091,6.091,0,1,1-8.614,0,6.09,6.09,0,0,1,8.614,0" transform="translate(709.781 244.54)" fill="#35b5d5" opacity="0.44"/><g transform="translate(394.181 672.358)" opacity="0.25" style="mix-blend-mode:multiply;isolation:isolate"><g clip-path="url(#r)"><path d="M173.107,699.562s24.13-295.141,250.59-387.951S642.733,554.776,874.762,484.24s274.72,181.91-1.858,239.453-699.8-24.13-699.8-24.13" transform="translate(-173.107 -295.269)" fill="url(#a)"/></g></g><path d="M468.715,257.965l12.424-21.521H456.291Z" transform="translate(582.727 301.961)" fill="#35b5d5" opacity="0.28"/><path d="M323.069,182.492l12.424-21.521H310.645Z" transform="translate(396.724 205.575)" fill="#35b5d5" opacity="0.44"/><path d="M87.383,379.1S114.2,268.037,243.826,272.393s164.91,216.54,319.891,200.824,192.426,203.326-.05,286.7S87.383,379.1,87.383,379.1" transform="translate(111.596 347.712)" fill="url(#a)"/><path d="M115.762,350.2A112.139,112.139,0,0,1,99.7,316.669l2.564-.726c13.442,47.393,60.728,83.77,109.986,84.612,21.111.362,42.076-5.076,62.354-10.334,10.352-2.687,21.063-5.465,31.713-7.46,18.633-3.484,64.786-8.423,90.9,20.958,16.069,18.092,19.205,42.914,22.229,66.919,1.114,8.828,2.261,17.962,4.046,26.574,11.094,53.694,51.982,99.233,104.17,116.029s111.965,3.646,152.288-33.5l1.808,1.963c-41.022,37.779-101.827,51.16-154.913,34.077s-94.677-63.417-105.965-118.026c-1.806-8.719-2.96-17.9-4.078-26.781-2.974-23.6-6.062-48.012-21.575-65.482-25.21-28.361-70.23-23.511-88.42-20.109-10.561,1.979-21.225,4.745-31.536,7.419-20.448,5.3-41.589,10.789-63.064,10.42-37.923-.644-74.7-21.89-96.444-53.024" transform="translate(127.325 403.489)" fill="#175ec8"/><path d="M129.562,384.325a74.111,74.111,0,0,1-13.344-37.262c-1.624-24.64,10.254-49.923,30.256-64.408l1.562,2.161a72.4,72.4,0,0,0-29.158,62.076c1.564,23.743,16.106,46.4,37.051,57.708,28.368,15.316,63.558,9.7,94.313,3.238l1.378-.289c32.05-6.74,65.186-13.71,95.235-1.61,30.281,12.192,53.537,42.985,69.135,91.526,2.55,7.943,4.944,16.142,7.257,24.073,8.562,29.309,17.392,59.6,36.153,83.754a120.624,120.624,0,0,0,177.2,14.539l1.808,1.954a123.289,123.289,0,0,1-181.111-14.858c-19.043-24.54-27.974-55.094-36.6-84.644-2.309-7.913-4.7-16.095-7.243-24-15.343-47.753-38.08-77.986-67.584-89.868-29.3-11.8-62.037-4.914-93.691,1.744l-1.38.289c-31.221,6.563-66.969,12.246-96.13-3.5a73.377,73.377,0,0,1-25.1-22.618" transform="translate(148.233 360.977)" fill="#175ec8"/><g transform="translate(294.686 178.085)" opacity="0.47"><g transform="translate(485.421 483.029)" opacity="0.31"><g clip-path="url(#u)"><line x1="330.418" y2="298.648" transform="translate(4.554 4.554)" fill="none" stroke="#35b5d5" stroke-linecap="round" stroke-miterlimit="10" stroke-width="4"/></g></g><g transform="translate(545.785 454.435)" opacity="0.31"><g clip-path="url(#v)"><line x1="330.418" y2="298.648" transform="translate(4.556 4.554)" fill="none" stroke="#35b5d5" stroke-linecap="round" stroke-miterlimit="10" stroke-width="4"/></g></g><g transform="translate(544.197 398.835)" opacity="0.31"><g clip-path="url(#u)"><line x1="330.418" y2="298.648" transform="translate(4.554 4.554)" fill="none" stroke="#35b5d5" stroke-linecap="round" stroke-miterlimit="10" stroke-width="4"/></g></g><path d="M413.589,317.092a8.507,8.507,0,1,1-8.509-8.51,8.509,8.509,0,0,1,8.509,8.51" transform="translate(211.778 216.004)" fill="#35b5d5" opacity="0.44"/><path d="M558.93,173.942a8.507,8.507,0,1,1-8.51-8.509,8.511,8.511,0,0,1,8.51,8.509" transform="translate(397.392 33.187)" fill="#35b5d5" opacity="0.44"/><path d="M512.636,348.715a8.507,8.507,0,1,1-8.51-8.509,8.509,8.509,0,0,1,8.51,8.509" transform="translate(338.27 256.391)" fill="#35b5d5" stroke="#1759bc" stroke-width="1" opacity="0.44"/><path d="M525.533,223.09a6.091,6.091,0,1,1-8.614,0,6.09,6.09,0,0,1,8.614,0" transform="translate(363.189 104.543)" fill="#35b5d5" opacity="0.44"/><path d="M525.671,233.772a6.091,6.091,0,1,1-8.614,0,6.09,6.09,0,0,1,8.614,0" transform="translate(363.365 118.184)" fill="#35b5d5" opacity="0.44"/><g transform="translate(0 297.377)" opacity="0.29"><g clip-path="url(#x)"><path d="M233.519,249.346c0,22.345-18.884,40.457-42.176,40.457s-42.179-18.112-42.179-40.457,18.884-40.457,42.179-40.457S233.519,227,233.519,249.346" transform="translate(-122.372 -183.187)" fill="#35b5d5"/><path d="M206.369,329.918c-38.03,0-68.971-29.677-68.971-66.159S168.339,197.6,206.369,197.6s68.971,29.68,68.971,66.159-30.941,66.159-68.971,66.159m0-119.384c-30.6,0-55.486,23.878-55.486,53.225s24.891,53.225,55.486,53.225,55.488-23.875,55.488-53.225-24.893-53.225-55.488-53.225" transform="translate(-137.398 -197.603)" fill="#35b5d5"/></g></g><path d="M358.182,307.5l-21.644,37.488h43.288Z" transform="translate(135.105 214.62)" fill="#35b5d5" opacity="0.44"/><path d="M361.637,348.494l12.424-21.521H349.213Z" transform="translate(151.292 239.491)" fill="#35b5d5" opacity="0.44"/><path d="M465.26,216.969l-21.644,37.486H486.9Z" transform="translate(271.853 99.006)" fill="#35b5d5" opacity="0.44"/><path d="M319.614,141.5l-21.644,37.486h43.288Z" transform="translate(85.85 2.62)" fill="#35b5d5" opacity="0.44"/><g transform="translate(715.549 30.542)" opacity="0.46"><g clip-path="url(#y)"><path d="M570.184,129.95c0,22.345-18.884,40.457-42.176,40.457S485.829,152.3,485.829,129.95s18.884-40.457,42.179-40.457,42.176,18.112,42.176,40.457" transform="translate(-459.037 -63.794)" fill="#35b5d5"/><path d="M543.034,210.523c-38.03,0-68.971-29.677-68.971-66.159S505,78.206,543.034,78.206,612,107.886,612,144.365s-30.941,66.159-68.971,66.159m0-119.384c-30.6,0-55.486,23.878-55.486,53.225s24.891,53.227,55.486,53.227,55.486-23.878,55.486-53.227S573.629,91.14,543.034,91.14" transform="translate(-474.063 -78.208)" fill="#35b5d5"/></g></g></g><path d="M919.987,207.6c-35.406-4.875-70.745,18.9-86.3,51.078s-13.863,70.56-2.953,104.6c7.983,24.914,20.813,49.429,19.057,75.531-2.851,42.39-41.669,71.665-66.5,106.135a178.313,178.313,0,0,0-33.25,95.822c-.706,16.142.954,32.865,8.58,47.111,18.092,33.787,61.652,42.607,99.632,47.737,30.187,4.076,62.67,7.779,89.588-6.474,38.487-20.38,50.977-69,55.463-112.313,9.243-89.214,1.4-179.567-15.384-267.672-10.283-53.985-25-109.494-60.874-151.126" transform="translate(957.685 252.895)" fill="url(#a)"/></g></g></g></g></g></svg>