<svg xmlns="http://www.w3.org/2000/svg" width="118.417" height="186.787" viewBox="0 0 118.417 186.787"><g transform="translate(-1068.483 -365.788)"><rect width="20.279" height="144.366" rx="10.14" transform="translate(1172.708 438.041) rotate(46.216)" fill="#fff"/><rect width="20.279" height="83.262" rx="10.14" transform="translate(1150.65 365.788) rotate(46.216)" fill="#35b5d5"/><path d="M8.756.8a1.171,1.171,0,0,1,.828,2l-2,2-.567.567.567.567,2,2A1.171,1.171,0,1,1,7.928,9.584l-2-2-.567-.567L4.8,7.588l-2,2A1.171,1.171,0,0,1,1.145,7.928l2-2,.567-.567L3.141,4.8l-2-2A1.171,1.171,0,0,1,2.8,1.145l2,2,.567.567.567-.567,2-2A1.165,1.165,0,0,1,8.756.8m0-.8a1.968,1.968,0,0,0-1.4.577l-2,2-2-2A1.973,1.973,0,1,0,.578,3.368l2,2-2,2a1.973,1.973,0,1,0,2.79,2.79l2-2,2,2a1.973,1.973,0,0,0,2.791,0h0a1.973,1.973,0,0,0,0-2.79l-2-2,2-2a1.974,1.974,0,0,0,0-2.791h0A1.968,1.968,0,0,0,8.756,0Z" transform="translate(1179.313 543.18) rotate(-135)" fill="#fff"/></g></svg>